<?xml version='1.0' encoding='utf-8'?>
<svg xmlns="http://www.w3.org/2000/svg" width="1600" height="950" viewBox="0 0 1600 950">
  <rect width="1600" height="950" fill="#f0e4c4" />
  <line x1="0" y1="0" x2="0" y2="950" stroke="#d4c4a4" stroke-width="0.3" />
  <line x1="20" y1="0" x2="20" y2="950" stroke="#d4c4a4" stroke-width="0.3" />
  <line x1="40" y1="0" x2="40" y2="950" stroke="#d4c4a4" stroke-width="0.3" />
  <line x1="60" y1="0" x2="60" y2="950" stroke="#d4c4a4" stroke-width="0.3" />
  <line x1="80" y1="0" x2="80" y2="950" stroke="#d4c4a4" stroke-width="0.3" />
  <line x1="100" y1="0" x2="100" y2="950" stroke="#d4c4a4" stroke-width="0.3" />
  <line x1="120" y1="0" x2="120" y2="950" stroke="#d4c4a4" stroke-width="0.3" />
  <line x1="140" y1="0" x2="140" y2="950" stroke="#d4c4a4" stroke-width="0.3" />
  <line x1="160" y1="0" x2="160" y2="950" stroke="#d4c4a4" stroke-width="0.3" />
  <line x1="180" y1="0" x2="180" y2="950" stroke="#d4c4a4" stroke-width="0.3" />
  <line x1="200" y1="0" x2="200" y2="950" stroke="#d4c4a4" stroke-width="0.3" />
  <line x1="220" y1="0" x2="220" y2="950" stroke="#d4c4a4" stroke-width="0.3" />
  <line x1="240" y1="0" x2="240" y2="950" stroke="#d4c4a4" stroke-width="0.3" />
  <line x1="260" y1="0" x2="260" y2="950" stroke="#d4c4a4" stroke-width="0.3" />
  <line x1="280" y1="0" x2="280" y2="950" stroke="#d4c4a4" stroke-width="0.3" />
  <line x1="300" y1="0" x2="300" y2="950" stroke="#d4c4a4" stroke-width="0.3" />
  <line x1="320" y1="0" x2="320" y2="950" stroke="#d4c4a4" stroke-width="0.3" />
  <line x1="340" y1="0" x2="340" y2="950" stroke="#d4c4a4" stroke-width="0.3" />
  <line x1="360" y1="0" x2="360" y2="950" stroke="#d4c4a4" stroke-width="0.3" />
  <line x1="380" y1="0" x2="380" y2="950" stroke="#d4c4a4" stroke-width="0.3" />
  <line x1="400" y1="0" x2="400" y2="950" stroke="#d4c4a4" stroke-width="0.3" />
  <line x1="420" y1="0" x2="420" y2="950" stroke="#d4c4a4" stroke-width="0.3" />
  <line x1="440" y1="0" x2="440" y2="950" stroke="#d4c4a4" stroke-width="0.3" />
  <line x1="460" y1="0" x2="460" y2="950" stroke="#d4c4a4" stroke-width="0.3" />
  <line x1="480" y1="0" x2="480" y2="950" stroke="#d4c4a4" stroke-width="0.3" />
  <line x1="500" y1="0" x2="500" y2="950" stroke="#d4c4a4" stroke-width="0.3" />
  <line x1="520" y1="0" x2="520" y2="950" stroke="#d4c4a4" stroke-width="0.3" />
  <line x1="540" y1="0" x2="540" y2="950" stroke="#d4c4a4" stroke-width="0.3" />
  <line x1="560" y1="0" x2="560" y2="950" stroke="#d4c4a4" stroke-width="0.3" />
  <line x1="580" y1="0" x2="580" y2="950" stroke="#d4c4a4" stroke-width="0.3" />
  <line x1="600" y1="0" x2="600" y2="950" stroke="#d4c4a4" stroke-width="0.3" />
  <line x1="620" y1="0" x2="620" y2="950" stroke="#d4c4a4" stroke-width="0.3" />
  <line x1="640" y1="0" x2="640" y2="950" stroke="#d4c4a4" stroke-width="0.3" />
  <line x1="660" y1="0" x2="660" y2="950" stroke="#d4c4a4" stroke-width="0.3" />
  <line x1="680" y1="0" x2="680" y2="950" stroke="#d4c4a4" stroke-width="0.3" />
  <line x1="700" y1="0" x2="700" y2="950" stroke="#d4c4a4" stroke-width="0.3" />
  <line x1="720" y1="0" x2="720" y2="950" stroke="#d4c4a4" stroke-width="0.3" />
  <line x1="740" y1="0" x2="740" y2="950" stroke="#d4c4a4" stroke-width="0.3" />
  <line x1="760" y1="0" x2="760" y2="950" stroke="#d4c4a4" stroke-width="0.3" />
  <line x1="780" y1="0" x2="780" y2="950" stroke="#d4c4a4" stroke-width="0.3" />
  <line x1="800" y1="0" x2="800" y2="950" stroke="#d4c4a4" stroke-width="0.3" />
  <line x1="820" y1="0" x2="820" y2="950" stroke="#d4c4a4" stroke-width="0.3" />
  <line x1="840" y1="0" x2="840" y2="950" stroke="#d4c4a4" stroke-width="0.3" />
  <line x1="860" y1="0" x2="860" y2="950" stroke="#d4c4a4" stroke-width="0.3" />
  <line x1="880" y1="0" x2="880" y2="950" stroke="#d4c4a4" stroke-width="0.3" />
  <line x1="900" y1="0" x2="900" y2="950" stroke="#d4c4a4" stroke-width="0.3" />
  <line x1="920" y1="0" x2="920" y2="950" stroke="#d4c4a4" stroke-width="0.3" />
  <line x1="940" y1="0" x2="940" y2="950" stroke="#d4c4a4" stroke-width="0.3" />
  <line x1="960" y1="0" x2="960" y2="950" stroke="#d4c4a4" stroke-width="0.3" />
  <line x1="980" y1="0" x2="980" y2="950" stroke="#d4c4a4" stroke-width="0.3" />
  <line x1="1000" y1="0" x2="1000" y2="950" stroke="#d4c4a4" stroke-width="0.3" />
  <line x1="1020" y1="0" x2="1020" y2="950" stroke="#d4c4a4" stroke-width="0.3" />
  <line x1="1040" y1="0" x2="1040" y2="950" stroke="#d4c4a4" stroke-width="0.3" />
  <line x1="1060" y1="0" x2="1060" y2="950" stroke="#d4c4a4" stroke-width="0.3" />
  <line x1="1080" y1="0" x2="1080" y2="950" stroke="#d4c4a4" stroke-width="0.3" />
  <line x1="1100" y1="0" x2="1100" y2="950" stroke="#d4c4a4" stroke-width="0.3" />
  <line x1="1120" y1="0" x2="1120" y2="950" stroke="#d4c4a4" stroke-width="0.3" />
  <line x1="1140" y1="0" x2="1140" y2="950" stroke="#d4c4a4" stroke-width="0.3" />
  <line x1="1160" y1="0" x2="1160" y2="950" stroke="#d4c4a4" stroke-width="0.3" />
  <line x1="1180" y1="0" x2="1180" y2="950" stroke="#d4c4a4" stroke-width="0.3" />
  <line x1="1200" y1="0" x2="1200" y2="950" stroke="#d4c4a4" stroke-width="0.3" />
  <line x1="1220" y1="0" x2="1220" y2="950" stroke="#d4c4a4" stroke-width="0.3" />
  <line x1="1240" y1="0" x2="1240" y2="950" stroke="#d4c4a4" stroke-width="0.3" />
  <line x1="1260" y1="0" x2="1260" y2="950" stroke="#d4c4a4" stroke-width="0.3" />
  <line x1="1280" y1="0" x2="1280" y2="950" stroke="#d4c4a4" stroke-width="0.3" />
  <line x1="1300" y1="0" x2="1300" y2="950" stroke="#d4c4a4" stroke-width="0.3" />
  <line x1="1320" y1="0" x2="1320" y2="950" stroke="#d4c4a4" stroke-width="0.3" />
  <line x1="1340" y1="0" x2="1340" y2="950" stroke="#d4c4a4" stroke-width="0.3" />
  <line x1="1360" y1="0" x2="1360" y2="950" stroke="#d4c4a4" stroke-width="0.3" />
  <line x1="1380" y1="0" x2="1380" y2="950" stroke="#d4c4a4" stroke-width="0.3" />
  <line x1="1400" y1="0" x2="1400" y2="950" stroke="#d4c4a4" stroke-width="0.3" />
  <line x1="1420" y1="0" x2="1420" y2="950" stroke="#d4c4a4" stroke-width="0.3" />
  <line x1="1440" y1="0" x2="1440" y2="950" stroke="#d4c4a4" stroke-width="0.3" />
  <line x1="1460" y1="0" x2="1460" y2="950" stroke="#d4c4a4" stroke-width="0.3" />
  <line x1="1480" y1="0" x2="1480" y2="950" stroke="#d4c4a4" stroke-width="0.3" />
  <line x1="1500" y1="0" x2="1500" y2="950" stroke="#d4c4a4" stroke-width="0.3" />
  <line x1="1520" y1="0" x2="1520" y2="950" stroke="#d4c4a4" stroke-width="0.3" />
  <line x1="1540" y1="0" x2="1540" y2="950" stroke="#d4c4a4" stroke-width="0.3" />
  <line x1="1560" y1="0" x2="1560" y2="950" stroke="#d4c4a4" stroke-width="0.3" />
  <line x1="1580" y1="0" x2="1580" y2="950" stroke="#d4c4a4" stroke-width="0.3" />
  <line x1="0" y1="0" x2="1600" y2="0" stroke="#d4c4a4" stroke-width="0.3" />
  <line x1="0" y1="20" x2="1600" y2="20" stroke="#d4c4a4" stroke-width="0.3" />
  <line x1="0" y1="40" x2="1600" y2="40" stroke="#d4c4a4" stroke-width="0.3" />
  <line x1="0" y1="60" x2="1600" y2="60" stroke="#d4c4a4" stroke-width="0.3" />
  <line x1="0" y1="80" x2="1600" y2="80" stroke="#d4c4a4" stroke-width="0.3" />
  <line x1="0" y1="100" x2="1600" y2="100" stroke="#d4c4a4" stroke-width="0.3" />
  <line x1="0" y1="120" x2="1600" y2="120" stroke="#d4c4a4" stroke-width="0.3" />
  <line x1="0" y1="140" x2="1600" y2="140" stroke="#d4c4a4" stroke-width="0.3" />
  <line x1="0" y1="160" x2="1600" y2="160" stroke="#d4c4a4" stroke-width="0.3" />
  <line x1="0" y1="180" x2="1600" y2="180" stroke="#d4c4a4" stroke-width="0.3" />
  <line x1="0" y1="200" x2="1600" y2="200" stroke="#d4c4a4" stroke-width="0.3" />
  <line x1="0" y1="220" x2="1600" y2="220" stroke="#d4c4a4" stroke-width="0.3" />
  <line x1="0" y1="240" x2="1600" y2="240" stroke="#d4c4a4" stroke-width="0.3" />
  <line x1="0" y1="260" x2="1600" y2="260" stroke="#d4c4a4" stroke-width="0.3" />
  <line x1="0" y1="280" x2="1600" y2="280" stroke="#d4c4a4" stroke-width="0.3" />
  <line x1="0" y1="300" x2="1600" y2="300" stroke="#d4c4a4" stroke-width="0.3" />
  <line x1="0" y1="320" x2="1600" y2="320" stroke="#d4c4a4" stroke-width="0.3" />
  <line x1="0" y1="340" x2="1600" y2="340" stroke="#d4c4a4" stroke-width="0.3" />
  <line x1="0" y1="360" x2="1600" y2="360" stroke="#d4c4a4" stroke-width="0.3" />
  <line x1="0" y1="380" x2="1600" y2="380" stroke="#d4c4a4" stroke-width="0.3" />
  <line x1="0" y1="400" x2="1600" y2="400" stroke="#d4c4a4" stroke-width="0.3" />
  <line x1="0" y1="420" x2="1600" y2="420" stroke="#d4c4a4" stroke-width="0.3" />
  <line x1="0" y1="440" x2="1600" y2="440" stroke="#d4c4a4" stroke-width="0.3" />
  <line x1="0" y1="460" x2="1600" y2="460" stroke="#d4c4a4" stroke-width="0.3" />
  <line x1="0" y1="480" x2="1600" y2="480" stroke="#d4c4a4" stroke-width="0.3" />
  <line x1="0" y1="500" x2="1600" y2="500" stroke="#d4c4a4" stroke-width="0.3" />
  <line x1="0" y1="520" x2="1600" y2="520" stroke="#d4c4a4" stroke-width="0.3" />
  <line x1="0" y1="540" x2="1600" y2="540" stroke="#d4c4a4" stroke-width="0.3" />
  <line x1="0" y1="560" x2="1600" y2="560" stroke="#d4c4a4" stroke-width="0.3" />
  <line x1="0" y1="580" x2="1600" y2="580" stroke="#d4c4a4" stroke-width="0.3" />
  <line x1="0" y1="600" x2="1600" y2="600" stroke="#d4c4a4" stroke-width="0.3" />
  <line x1="0" y1="620" x2="1600" y2="620" stroke="#d4c4a4" stroke-width="0.3" />
  <line x1="0" y1="640" x2="1600" y2="640" stroke="#d4c4a4" stroke-width="0.3" />
  <line x1="0" y1="660" x2="1600" y2="660" stroke="#d4c4a4" stroke-width="0.3" />
  <line x1="0" y1="680" x2="1600" y2="680" stroke="#d4c4a4" stroke-width="0.3" />
  <line x1="0" y1="700" x2="1600" y2="700" stroke="#d4c4a4" stroke-width="0.3" />
  <line x1="0" y1="720" x2="1600" y2="720" stroke="#d4c4a4" stroke-width="0.3" />
  <line x1="0" y1="740" x2="1600" y2="740" stroke="#d4c4a4" stroke-width="0.3" />
  <line x1="0" y1="760" x2="1600" y2="760" stroke="#d4c4a4" stroke-width="0.3" />
  <line x1="0" y1="780" x2="1600" y2="780" stroke="#d4c4a4" stroke-width="0.3" />
  <line x1="0" y1="800" x2="1600" y2="800" stroke="#d4c4a4" stroke-width="0.3" />
  <line x1="0" y1="820" x2="1600" y2="820" stroke="#d4c4a4" stroke-width="0.3" />
  <line x1="0" y1="840" x2="1600" y2="840" stroke="#d4c4a4" stroke-width="0.3" />
  <line x1="0" y1="860" x2="1600" y2="860" stroke="#d4c4a4" stroke-width="0.3" />
  <line x1="0" y1="880" x2="1600" y2="880" stroke="#d4c4a4" stroke-width="0.3" />
  <line x1="0" y1="900" x2="1600" y2="900" stroke="#d4c4a4" stroke-width="0.3" />
  <line x1="0" y1="920" x2="1600" y2="920" stroke="#d4c4a4" stroke-width="0.3" />
  <line x1="0" y1="940" x2="1600" y2="940" stroke="#d4c4a4" stroke-width="0.3" />
  <rect x="450" y="6" width="700" height="38" fill="#f5ead4" stroke="#1a0f05" stroke-width="2" />
  <text x="800" y="22" style="font-size:14px;font-family:serif;fill:#1a0f05;text-anchor:middle;font-weight:bold">ЧОРНИЙ АРХІВ — Схема Підземного Комплексу</text>
  <text x="800" y="37" style="font-size:9px;font-family:serif;fill:#665544;text-anchor:middle;font-style:italic">Мал. невідомий. Знайдено у кишені мертвого дослідника.</text>
  <text x="240" y="58" style="font-size:12px;font-family:serif;fill:#1a0f05;text-anchor:middle;font-weight:bold">РІВЕНЬ 1: ВХІД</text>
  <rect x="40" y="80" width="100" height="100" fill="#e8d8b0" stroke="#1a0f05" stroke-width="3" />
  <circle cx="60" cy="100" r="9" fill="#1a0f05" stroke="#e8d8b0" stroke-width="1" />
  <text x="60" y="104" style="font-size:9px;font-family:serif;fill:white;text-anchor:middle;font-weight:bold">1A</text>
  <text x="90.0" y="136.0" style="font-size:8px;font-family:serif;fill:#1a0f05;text-anchor:middle;font-weight:bold;">ПРИХОВАНИЙ</text>
  <text x="90.0" y="147.2" style="font-size:8px;font-family:serif;fill:#1a0f05;text-anchor:middle;font-weight:bold;">ВХІД</text>
  <line x1="40" y1="80" x2="140" y2="80" stroke="#664422" stroke-width="2" stroke-dasharray="6,4" />
  <text x="40" y="70.0" style="font-size:7px;font-family:serif;fill:#664422;text-anchor:start;font-style:italic;">← Бібліотека (таємна шафа)</text>
  <rect x="140" y="100" width="40" height="60" fill="#e0d0a0" stroke="#1a0f05" stroke-width="3" />
  <rect x="180" y="60" width="140" height="140" fill="#e8d8b0" stroke="#1a0f05" stroke-width="3" />
  <circle cx="200" cy="80" r="9" fill="#1a0f05" stroke="#e8d8b0" stroke-width="1" />
  <text x="200" y="84" style="font-size:9px;font-family:serif;fill:white;text-anchor:middle;font-weight:bold">1B</text>
  <text x="250.0" y="110.0" style="font-size:8px;font-family:serif;fill:#1a0f05;text-anchor:middle;font-weight:bold;">КІМНАТА</text>
  <text x="250.0" y="121.2" style="font-size:8px;font-family:serif;fill:#1a0f05;text-anchor:middle;font-weight:bold;">ВАРТИ</text>
  <text x="250.0" y="132.4" style="font-size:8px;font-family:serif;fill:#1a0f05;text-anchor:middle;font-weight:bold;">6×8м</text>
  <text x="200" y="170.0" style="font-size:8px;font-family:serif;fill:#445;text-anchor:middle;">⛓ манакли</text>
  <text x="260" y="170.0" style="font-size:8px;font-family:serif;fill:#445;text-anchor:middle;">● злив</text>
  <rect x="179" y="120.0" width="2" height="20" fill="#1a0f05" stroke="#1a0f05" />
  <rect x="320" y="80" width="40" height="200" fill="#e0d0a0" stroke="#1a0f05" stroke-width="3" />
  <rect x="360" y="140" width="120" height="40" fill="#e0d0a0" stroke="#1a0f05" stroke-width="3" />
  <rect x="320" y="40" width="40" height="40" fill="#998870" stroke="#1a0f05" stroke-width="3" />
  <text x="350.0" y="60.0" style="font-size:7px;font-family:serif;fill:#555;text-anchor:middle;">ТУПИК</text>
  <line x1="320" y1="40" x2="360" y2="80" stroke="#888" stroke-width="3" />
  <text x="330.0" y="150.0" style="font-size:9px;font-family:serif;fill:#1a0f05;text-anchor:middle;font-weight:bold;">T</text>
  <rect x="333" y="233" width="14" height="14" fill="#8b0000" stroke="#500" stroke-width="1.5" />
  <line x1="334" y1="234" x2="346" y2="246" stroke="white" stroke-width="1.5" />
  <line x1="346" y1="234" x2="334" y2="246" stroke="white" stroke-width="1.5" />
  <text x="340" y="258" style="font-size:7px;font-family:serif;fill:#8b0000;text-anchor:middle;font-weight:bold">T1: яма зі шипами</text>
  <rect x="480" y="100" width="100" height="120" fill="#d8c89a" stroke="#1a0f05" stroke-width="3" />
  <circle cx="500" cy="120" r="9" fill="#1a0f05" stroke="#e8d8b0" stroke-width="1" />
  <text x="500" y="124" style="font-size:9px;font-family:serif;fill:white;text-anchor:middle;font-weight:bold" />
  <text x="530.0" y="140.0" style="font-size:8px;font-family:serif;fill:#1a0f05;text-anchor:middle;font-weight:bold;">ПІДСОБНЕ</text>
  <text x="530.0" y="151.2" style="font-size:8px;font-family:serif;fill:#1a0f05;text-anchor:middle;font-weight:bold;">СКЛЕПІННЯ</text>
  <text x="530.0" y="190.0" style="font-size:7px;font-family:serif;fill:#8b0000;text-anchor:middle;font-style:italic;">(порожньо?</text>
  <text x="530.0" y="199.8" style="font-size:7px;font-family:serif;fill:#8b0000;text-anchor:middle;font-style:italic;">ні.)</text>
  <rect x="479" y="150" width="2" height="20" fill="#1a0f05" stroke="#1a0f05" />
  <rect x="433" y="153" width="14" height="14" fill="#6b3300" stroke="#500" stroke-width="1.5" />
  <line x1="434" y1="154" x2="446" y2="166" stroke="white" stroke-width="1.5" />
  <line x1="446" y1="154" x2="434" y2="166" stroke="white" stroke-width="1.5" />
  <text x="440" y="178" style="font-size:7px;font-family:serif;fill:#6b3300;text-anchor:middle;font-weight:bold">T2: сигналізація</text>
  <rect x="320" y="260" width="40" height="60" fill="#e0d0a0" stroke="#1a0f05" stroke-width="3" />
  <text x="340" y="320.0" style="font-size:9px;font-family:serif;fill:#1a0f05;text-anchor:middle;font-weight:bold;">▼ РІВЕНЬ 2</text>
  <line x1="340" y1="300" x2="340" y2="320" stroke="#1a0f05" stroke-width="2" marker-end="url(#arrow)" />
  <rect x="320" y="200" width="40" height="80" fill="#e0d0a0" stroke="#1a0f05" stroke-width="3" />
  <rect x="580" y="0" width="4" height="950" fill="#8b6a3a" opacity="0.4" />
  <text x="582" y="475" transform="rotate(-90,582,475)" style="font-size:13px;font-family:serif;fill:#1a0f05;text-anchor:middle;font-weight:bold">РІВЕНЬ 1 → РІВЕНЬ 2</text>
  <text x="920" y="58" style="font-size:12px;font-family:serif;fill:#1a0f05;text-anchor:middle;font-weight:bold">РІВЕНЬ 2: АРХІВ</text>
  <rect x="620" y="80" width="100" height="80" fill="#e0d0a0" stroke="#1a0f05" stroke-width="3" />
  <text x="670.0" y="120.0" style="font-size:8px;font-family:serif;fill:#1a0f05;text-anchor:middle;font-weight:bold;">ВЕСТИБЮЛЬ</text>
  <rect x="660" y="160" width="40" height="60" fill="#e0d0a0" stroke="#1a0f05" stroke-width="3" />
  <rect x="673" y="193" width="14" height="14" fill="#5a4a00" stroke="#500" stroke-width="1.5" />
  <line x1="674" y1="194" x2="686" y2="206" stroke="white" stroke-width="1.5" />
  <line x1="686" y1="194" x2="674" y2="206" stroke="white" stroke-width="1.5" />
  <text x="680" y="218" style="font-size:7px;font-family:serif;fill:#5a4a00;text-anchor:middle;font-weight:bold">T3: газ</text>
  <text x="620" y="210.0" style="font-size:7px;font-family:serif;fill:#8b0000;text-anchor:start;font-style:italic;">← ЛІВА плита!</text>
  <rect x="620" y="220" width="440" height="180" fill="#e8d8b0" stroke="#1a0f05" stroke-width="3" />
  <circle cx="640" cy="240" r="9" fill="#1a0f05" stroke="#e8d8b0" stroke-width="1" />
  <text x="640" y="244" style="font-size:9px;font-family:serif;fill:white;text-anchor:middle;font-weight:bold">2A</text>
  <text x="840" y="260.0" style="font-size:10px;font-family:serif;fill:#1a0f05;text-anchor:middle;font-weight:bold;">ВЕЛИКИЙ СХОВОК  8×20м</text>
  <text x="840" y="290.0" style="font-size:8px;font-family:serif;fill:#1a0f05;text-anchor:middle;">стелажі з ящиками по периметру</text>
  <rect x="640" y="224" width="18" height="8" fill="#9a8860" />
  <rect x="640" y="386" width="18" height="8" fill="#9a8860" />
  <rect x="660" y="224" width="18" height="8" fill="#9a8860" />
  <rect x="660" y="386" width="18" height="8" fill="#9a8860" />
  <rect x="680" y="224" width="18" height="8" fill="#9a8860" />
  <rect x="680" y="386" width="18" height="8" fill="#9a8860" />
  <rect x="700" y="224" width="18" height="8" fill="#9a8860" />
  <rect x="700" y="386" width="18" height="8" fill="#9a8860" />
  <rect x="720" y="224" width="18" height="8" fill="#9a8860" />
  <rect x="720" y="386" width="18" height="8" fill="#9a8860" />
  <rect x="740" y="224" width="18" height="8" fill="#9a8860" />
  <rect x="740" y="386" width="18" height="8" fill="#9a8860" />
  <rect x="760" y="224" width="18" height="8" fill="#9a8860" />
  <rect x="760" y="386" width="18" height="8" fill="#9a8860" />
  <rect x="780" y="224" width="18" height="8" fill="#9a8860" />
  <rect x="780" y="386" width="18" height="8" fill="#9a8860" />
  <rect x="800" y="224" width="18" height="8" fill="#9a8860" />
  <rect x="800" y="386" width="18" height="8" fill="#9a8860" />
  <rect x="820" y="224" width="18" height="8" fill="#9a8860" />
  <rect x="820" y="386" width="18" height="8" fill="#9a8860" />
  <rect x="840" y="224" width="18" height="8" fill="#9a8860" />
  <rect x="840" y="386" width="18" height="8" fill="#9a8860" />
  <rect x="860" y="224" width="18" height="8" fill="#9a8860" />
  <rect x="860" y="386" width="18" height="8" fill="#9a8860" />
  <rect x="880" y="224" width="18" height="8" fill="#9a8860" />
  <rect x="880" y="386" width="18" height="8" fill="#9a8860" />
  <rect x="900" y="224" width="18" height="8" fill="#9a8860" />
  <rect x="900" y="386" width="18" height="8" fill="#9a8860" />
  <rect x="920" y="224" width="18" height="8" fill="#9a8860" />
  <rect x="920" y="386" width="18" height="8" fill="#9a8860" />
  <rect x="940" y="224" width="18" height="8" fill="#9a8860" />
  <rect x="940" y="386" width="18" height="8" fill="#9a8860" />
  <rect x="960" y="224" width="18" height="8" fill="#9a8860" />
  <rect x="960" y="386" width="18" height="8" fill="#9a8860" />
  <rect x="980" y="224" width="18" height="8" fill="#9a8860" />
  <rect x="980" y="386" width="18" height="8" fill="#9a8860" />
  <rect x="1000" y="224" width="18" height="8" fill="#9a8860" />
  <rect x="1000" y="386" width="18" height="8" fill="#9a8860" />
  <rect x="1020" y="224" width="18" height="8" fill="#9a8860" />
  <rect x="1020" y="386" width="18" height="8" fill="#9a8860" />
  <circle cx="840" cy="320" r="55" fill="none" stroke="#aaa880" stroke-width="1" stroke-dasharray="2,2" />
  <circle cx="840" cy="320" r="40" fill="none" stroke="#aaa880" stroke-width="1" stroke-dasharray="2,2" />
  <circle cx="840" cy="320" r="28" fill="none" stroke="#aaa880" stroke-width="1" stroke-dasharray="2,2" />
  <rect x="828" y="302" width="24" height="36" fill="#c8c4b4" stroke="#a0a090" stroke-width="2" rx="3" />
  <circle cx="840" cy="320" r="20" fill="none" stroke="#b8c8b8" stroke-width="0.8" />
  <circle cx="840" cy="320" r="30" fill="none" stroke="#b8c8b8" stroke-width="0.8" />
  <text x="840" y="348" style="font-size:7px;font-family:serif;fill:#1a0f05;text-anchor:middle;font-weight:bold">☆ АРТЕФАКТ</text>
  <circle cx="855" cy="329" r="3" fill="#8b0000" opacity="0.6" />
  <circle cx="864" cy="314" r="3" fill="#8b0000" opacity="0.6" />
  <circle cx="849" cy="305" r="3" fill="#8b0000" opacity="0.6" />
  <line x1="1060" y1="300" x2="1100" y2="300" stroke="#664422" stroke-width="2" stroke-dasharray="5,4" />
  <text x="1070.0" y="280.0" style="font-size:7px;font-family:serif;fill:#664422;text-anchor:middle;font-style:italic;">← таємний хід</text>
  <rect x="1100" y="220" width="140" height="160" fill="#e8d8b0" stroke="#1a0f05" stroke-width="3" />
  <circle cx="1120" cy="240" r="9" fill="#1a0f05" stroke="#e8d8b0" stroke-width="1" />
  <text x="1120" y="244" style="font-size:9px;font-family:serif;fill:white;text-anchor:middle;font-weight:bold">2B</text>
  <text x="1170.0" y="270.0" style="font-size:8px;font-family:serif;fill:#1a0f05;text-anchor:middle;font-weight:bold;">КАБІНЕТ</text>
  <text x="1170.0" y="281.2" style="font-size:8px;font-family:serif;fill:#1a0f05;text-anchor:middle;font-weight:bold;">СЕБАСТЬЯНА</text>
  <text x="1170.0" y="292.4" style="font-size:8px;font-family:serif;fill:#1a0f05;text-anchor:middle;font-weight:bold;">4×5м</text>
  <text x="1120" y="330.0" style="font-size:9px;font-family:serif;fill:#1a0f05;text-anchor:middle;">♦ костюм</text>
  <text x="1120" y="350.0" style="font-size:7px;font-family:serif;fill:#555;text-anchor:middle;">🪞 дзеркало</text>
  <text x="1120" y="359.8" style="font-size:7px;font-family:serif;fill:#555;text-anchor:middle;">до стіни</text>
  <rect x="1113" y="233" width="14" height="14" fill="#6b3300" stroke="#500" stroke-width="1.5" />
  <line x1="1114" y1="234" x2="1126" y2="246" stroke="white" stroke-width="1.5" />
  <line x1="1126" y1="234" x2="1114" y2="246" stroke="white" stroke-width="1.5" />
  <text x="1120" y="258" style="font-size:7px;font-family:serif;fill:#6b3300;text-anchor:middle;font-weight:bold">T4: дріт</text>
  <rect x="780" y="400" width="60" height="160" fill="#e0d0a0" stroke="#1a0f05" stroke-width="3" />
  <rect x="803.0" y="433" width="14" height="14" fill="#8b0000" stroke="#500" stroke-width="1.5" />
  <line x1="804.0" y1="434" x2="816.0" y2="446" stroke="white" stroke-width="1.5" />
  <line x1="816.0" y1="434" x2="804.0" y2="446" stroke="white" stroke-width="1.5" />
  <text x="810.0" y="458" style="font-size:7px;font-family:serif;fill:#8b0000;text-anchor:middle;font-weight:bold">T5: шипи</text>
  <rect x="803.0" y="493" width="14" height="14" fill="#5a4a00" stroke="#500" stroke-width="1.5" />
  <line x1="804.0" y1="494" x2="816.0" y2="506" stroke="white" stroke-width="1.5" />
  <line x1="816.0" y1="494" x2="804.0" y2="506" stroke="white" stroke-width="1.5" />
  <text x="810.0" y="518" style="font-size:7px;font-family:serif;fill:#5a4a00;text-anchor:middle;font-weight:bold">T6: газ</text>
  <text x="740" y="500.0" style="font-size:7px;font-family:serif;fill:#8b0000;text-anchor:start;font-style:italic;">← ЛІВА</text>
  <rect x="740" y="560" width="140" height="120" fill="#e8d8b0" stroke="#1a0f05" stroke-width="3" />
  <circle cx="760" cy="580" r="9" fill="#1a0f05" stroke="#e8d8b0" stroke-width="1" />
  <text x="760" y="584" style="font-size:9px;font-family:serif;fill:white;text-anchor:middle;font-weight:bold">2C</text>
  <text x="810.0" y="600.0" style="font-size:8px;font-family:serif;fill:#1a0f05;text-anchor:middle;font-weight:bold;">ПОРОЖНЯ</text>
  <text x="810.0" y="611.2" style="font-size:8px;font-family:serif;fill:#1a0f05;text-anchor:middle;font-weight:bold;">КІМНАТА  3×3м</text>
  <rect x="792" y="640" width="16" height="11" fill="#8b6a3a" stroke="#4a3a1a" stroke-width="1.5" />
  <text x="810.0" y="670.0" style="font-size:12px;font-family:serif;fill:#8b0000;text-anchor:middle;font-weight:bold;">???</text>
  <text x="740" y="690.0" style="font-size:7px;font-family:serif;fill:#8b0000;text-anchor:start;font-style:italic;">відкрита порожня</text>
  <text x="740" y="699.8" style="font-size:7px;font-family:serif;fill:#8b0000;text-anchor:start;font-style:italic;">koробка. без</text>
  <text x="740" y="709.6" style="font-size:7px;font-family:serif;fill:#8b0000;text-anchor:start;font-style:italic;">пояснень.</text>
  <rect x="800" y="680" width="40" height="80" fill="#e0d0a0" stroke="#1a0f05" stroke-width="3" />
  <text x="820" y="760.0" style="font-size:9px;font-family:serif;fill:#1a0f05;text-anchor:middle;font-weight:bold;">▼ РІВЕНЬ 3</text>
  <rect x="1240" y="0" width="4" height="950" fill="#8b6a3a" opacity="0.4" />
  <text x="1242" y="475" transform="rotate(-90,1242,475)" style="font-size:13px;font-family:serif;fill:#1a0f05;text-anchor:middle;font-weight:bold">РІВЕНЬ 2 → РІВЕНЬ 3</text>
  <text x="1440" y="58" style="font-size:12px;font-family:serif;fill:#1a0f05;text-anchor:middle;font-weight:bold">РІВЕНЬ 3: ГЛИБИНА</text>
  <rect x="1280" y="80" width="40" height="100" fill="#e0d0a0" stroke="#1a0f05" stroke-width="3" />
  <rect x="1280" y="180" width="160" height="140" fill="#e8d8b0" stroke="#1a0f05" stroke-width="3" />
  <circle cx="1300" cy="200" r="9" fill="#1a0f05" stroke="#e8d8b0" stroke-width="1" />
  <text x="1300" y="204" style="font-size:9px;font-family:serif;fill:white;text-anchor:middle;font-weight:bold">3A</text>
  <text x="1360" y="230.0" style="font-size:8px;font-family:serif;fill:#1a0f05;text-anchor:middle;font-weight:bold;">ПЕРЕДКІМНАТА</text>
  <text x="1360" y="241.2" style="font-size:8px;font-family:serif;fill:#1a0f05;text-anchor:middle;font-weight:bold;">РЕГУЛЯТОРА</text>
  <text x="1360" y="252.4" style="font-size:8px;font-family:serif;fill:#1a0f05;text-anchor:middle;font-weight:bold;">5×5м</text>
  <rect x="1437" y="220" width="6" height="100" fill="#8b0000" stroke="#600" stroke-width="2" />
  <circle cx="1440" cy="280" r="12" fill="none" stroke="#cc2200" stroke-width="2.5" />
  <line x1="1448.0" y1="280.0" x2="1453.0" y2="280.0" stroke="#cc2200" stroke-width="1.5" />
  <line x1="1445.6568542494924" y1="285.65685424949237" x2="1449.192388155425" y2="289.19238815542514" stroke="#cc2200" stroke-width="1.5" />
  <line x1="1440.0" y1="288.0" x2="1440.0" y2="293.0" stroke="#cc2200" stroke-width="1.5" />
  <line x1="1434.3431457505076" y1="285.65685424949237" x2="1430.807611844575" y2="289.19238815542514" stroke="#cc2200" stroke-width="1.5" />
  <line x1="1432.0" y1="280.0" x2="1427.0" y2="280.0" stroke="#cc2200" stroke-width="1.5" />
  <line x1="1434.3431457505076" y1="274.34314575050763" x2="1430.807611844575" y2="270.80761184457486" stroke="#cc2200" stroke-width="1.5" />
  <line x1="1440.0" y1="272.0" x2="1440.0" y2="267.0" stroke="#cc2200" stroke-width="1.5" />
  <line x1="1445.6568542494924" y1="274.34314575050763" x2="1449.192388155425" y2="270.80761184457486" stroke="#cc2200" stroke-width="1.5" />
  <text x="1450.0" y="240.0" style="font-size:7px;font-family:serif;fill:#cc2200;text-anchor:middle;font-weight:bold;">КРИВАВНА</text>
  <text x="1450.0" y="260.0" style="font-size:7px;font-family:serif;fill:#cc2200;text-anchor:middle;font-weight:bold;">ПЕЧАТКА</text>
  <text x="1450.0" y="280.0" style="font-size:7px;font-family:serif;fill:#cc2200;text-anchor:middle;font-style:italic;">тільки кров</text>
  <text x="1450.0" y="296.0" style="font-size:7px;font-family:serif;fill:#cc2200;text-anchor:middle;font-style:italic;">Ключника</text>
  <rect x="1160" y="220" width="120" height="100" fill="#1a3a6a" stroke="#1a0f05" stroke-width="3" />
  <text x="1220" y="260" style="font-size:8px;font-family:serif;fill:#88aadd;text-anchor:middle;font-weight:bold">ЗАТОПЛЕНИЙ</text>
  <text x="1220" y="280" style="font-size:8px;font-family:serif;fill:#88aadd;text-anchor:middle">ПРОХІД</text>
  <text x="1220" y="300" style="font-size:7px;font-family:serif;fill:#6688bb;text-anchor:middle;font-style:italic">вода 1.5м</text>
  <text x="1160" y="340" style="font-size:7px;font-family:serif;fill:#6688bb;font-style:italic">→ виходить під Хейзмуром</text>
  <rect x="1460" y="180" width="240" height="320" fill="#100808" stroke="#550000" stroke-width="4" />
  <text x="1580" y="520" style="font-size:9px;font-family:serif;fill:#887766;text-anchor:middle;font-weight:bold">ПІДВАЛ РЕГУЛЯТОРА</text>
  <circle cx="1480" cy="200" r="9" fill="#1a0f05" stroke="#e8d8b0" stroke-width="1" />
  <text x="1480" y="204" style="font-size:9px;font-family:serif;fill:white;text-anchor:middle;font-weight:bold">3B</text>
  <circle cx="1480" cy="200" r="7" fill="#3a2a1a" stroke="#665544" stroke-width="1.5" />
  <line x1="1480" y1="200" x2="1580" y2="340" stroke="#3a2a1a" stroke-width="1.5" stroke-dasharray="4,3" />
  <circle cx="1680" cy="200" r="7" fill="#3a2a1a" stroke="#665544" stroke-width="1.5" />
  <line x1="1680" y1="200" x2="1580" y2="340" stroke="#3a2a1a" stroke-width="1.5" stroke-dasharray="4,3" />
  <circle cx="1480" cy="480" r="7" fill="#3a2a1a" stroke="#665544" stroke-width="1.5" />
  <line x1="1480" y1="480" x2="1580" y2="340" stroke="#3a2a1a" stroke-width="1.5" stroke-dasharray="4,3" />
  <circle cx="1680" cy="480" r="7" fill="#3a2a1a" stroke="#665544" stroke-width="1.5" />
  <line x1="1680" y1="480" x2="1580" y2="340" stroke="#3a2a1a" stroke-width="1.5" stroke-dasharray="4,3" />
  <circle cx="1580" cy="340" r="50" fill="#0a0605" opacity="0.8" />
  <circle cx="1580" cy="340" r="38" fill="#0a0605" opacity="0.6799999999999999" />
  <circle cx="1580" cy="340" r="28" fill="#0a0605" opacity="0.5800000000000001" />
  <circle cx="1580" cy="340" r="18" fill="#0a0605" opacity="0.48" />
  <text x="1580" y="320" style="font-size:8px;font-family:serif;fill:#443322;text-anchor:middle;font-style:italic">не намагайся</text>
  <text x="1580" y="350.0" style="font-size:8px;font-family:serif;fill:#443322;text-anchor:middle;font-style:italic">дізнатись що там</text>
  <text x="1580" y="380" style="font-size:8px;font-family:serif;fill:#443322;text-anchor:middle;font-style:italic">і ти не намагайся</text>
  <rect x="1700" y="320" width="120" height="40" fill="#201510" stroke="#1a0f05" stroke-width="3" />
  <line x1="1820" y1="340" x2="1840" y2="340" stroke="#554433" stroke-width="2" stroke-dasharray="4,4" />
  <text x="1700" y="310.0" style="font-size:7px;font-family:serif;fill:#887755;font-style:italic">→ невідомо куди. стіни не природні.</text>
  <rect x="1440" y="260" width="20" height="60" fill="#e0d0a0" stroke="#1a0f05" stroke-width="3" />
  <text x="20" y="760" style="font-size:8px;font-family:serif;fill:#554433;font-style:italic">"Третій коридор праворуч — не ходи. Я ходив. Не ходи."</text>
  <text x="20" y="800" style="font-size:8px;font-family:serif;fill:#554433;font-style:italic">"Глибина від поверхні: невідома. Стіни не природні."</text>
  <text x="20" y="840" style="font-size:8px;font-family:serif;fill:#554433;font-style:italic">"Хтось приходив сюди до нас. Давно. Залишили попередження</text>
  <text x="20" y="870.0" style="font-size:8px;font-family:serif;fill:#554433;font-style:italic"> на мові якої більше не існує."</text>
  <rect x="4" y="830" width="550" height="115" fill="#f5ead4" stroke="#1a0f05" stroke-width="1.5" />
  <text x="280" y="845" style="font-size:10px;font-family:serif;fill:#1a0f05;text-anchor:middle;font-weight:bold">ЛЕГЕНДА</text>
  <text x="20" y="865" style="font-size:8px;font-family:serif;fill:#8b0000">⊠ Пастка-яма зі шипами</text>
  <text x="20" y="883" style="font-size:8px;font-family:serif;fill:#6b6b00">░ Отруйний газ</text>
  <text x="20" y="901" style="font-size:8px;font-family:serif;fill:#664422">~~~ Дротяна сигналізація</text>
  <text x="20" y="919" style="font-size:8px;font-family:serif;fill:#8b0000">❋ Кров'яна печатка</text>
  <text x="290" y="865" style="font-size:8px;font-family:serif;fill:#9a8860">▓ Стелажі з ящиками</text>
  <text x="290" y="883" style="font-size:8px;font-family:serif;fill:#664422">--- Таємний хід</text>
  <text x="290" y="901" style="font-size:8px;font-family:serif;fill:#1a3a6a">███ Затоплений прохід</text>
  <text x="290" y="919" style="font-size:8px;font-family:serif;fill:#220f05">● Тунель: стіни не природні</text>
</svg>