<?xml version='1.0' encoding='utf-8'?>
<svg xmlns="http://www.w3.org/2000/svg" width="1400" height="700" viewBox="0 0 1400 700">
  <rect width="1400" height="700" fill="#080604" />
  <line x1="0" y1="0" x2="0" y2="700" stroke="#0f0c08" stroke-width="0.4" />
  <line x1="18" y1="0" x2="18" y2="700" stroke="#0f0c08" stroke-width="0.4" />
  <line x1="36" y1="0" x2="36" y2="700" stroke="#0f0c08" stroke-width="0.4" />
  <line x1="54" y1="0" x2="54" y2="700" stroke="#0f0c08" stroke-width="0.4" />
  <line x1="72" y1="0" x2="72" y2="700" stroke="#0f0c08" stroke-width="0.4" />
  <line x1="90" y1="0" x2="90" y2="700" stroke="#0f0c08" stroke-width="0.4" />
  <line x1="108" y1="0" x2="108" y2="700" stroke="#0f0c08" stroke-width="0.4" />
  <line x1="126" y1="0" x2="126" y2="700" stroke="#0f0c08" stroke-width="0.4" />
  <line x1="144" y1="0" x2="144" y2="700" stroke="#0f0c08" stroke-width="0.4" />
  <line x1="162" y1="0" x2="162" y2="700" stroke="#0f0c08" stroke-width="0.4" />
  <line x1="180" y1="0" x2="180" y2="700" stroke="#0f0c08" stroke-width="0.4" />
  <line x1="198" y1="0" x2="198" y2="700" stroke="#0f0c08" stroke-width="0.4" />
  <line x1="216" y1="0" x2="216" y2="700" stroke="#0f0c08" stroke-width="0.4" />
  <line x1="234" y1="0" x2="234" y2="700" stroke="#0f0c08" stroke-width="0.4" />
  <line x1="252" y1="0" x2="252" y2="700" stroke="#0f0c08" stroke-width="0.4" />
  <line x1="270" y1="0" x2="270" y2="700" stroke="#0f0c08" stroke-width="0.4" />
  <line x1="288" y1="0" x2="288" y2="700" stroke="#0f0c08" stroke-width="0.4" />
  <line x1="306" y1="0" x2="306" y2="700" stroke="#0f0c08" stroke-width="0.4" />
  <line x1="324" y1="0" x2="324" y2="700" stroke="#0f0c08" stroke-width="0.4" />
  <line x1="342" y1="0" x2="342" y2="700" stroke="#0f0c08" stroke-width="0.4" />
  <line x1="360" y1="0" x2="360" y2="700" stroke="#0f0c08" stroke-width="0.4" />
  <line x1="378" y1="0" x2="378" y2="700" stroke="#0f0c08" stroke-width="0.4" />
  <line x1="396" y1="0" x2="396" y2="700" stroke="#0f0c08" stroke-width="0.4" />
  <line x1="414" y1="0" x2="414" y2="700" stroke="#0f0c08" stroke-width="0.4" />
  <line x1="432" y1="0" x2="432" y2="700" stroke="#0f0c08" stroke-width="0.4" />
  <line x1="450" y1="0" x2="450" y2="700" stroke="#0f0c08" stroke-width="0.4" />
  <line x1="468" y1="0" x2="468" y2="700" stroke="#0f0c08" stroke-width="0.4" />
  <line x1="486" y1="0" x2="486" y2="700" stroke="#0f0c08" stroke-width="0.4" />
  <line x1="504" y1="0" x2="504" y2="700" stroke="#0f0c08" stroke-width="0.4" />
  <line x1="522" y1="0" x2="522" y2="700" stroke="#0f0c08" stroke-width="0.4" />
  <line x1="540" y1="0" x2="540" y2="700" stroke="#0f0c08" stroke-width="0.4" />
  <line x1="558" y1="0" x2="558" y2="700" stroke="#0f0c08" stroke-width="0.4" />
  <line x1="576" y1="0" x2="576" y2="700" stroke="#0f0c08" stroke-width="0.4" />
  <line x1="594" y1="0" x2="594" y2="700" stroke="#0f0c08" stroke-width="0.4" />
  <line x1="612" y1="0" x2="612" y2="700" stroke="#0f0c08" stroke-width="0.4" />
  <line x1="630" y1="0" x2="630" y2="700" stroke="#0f0c08" stroke-width="0.4" />
  <line x1="648" y1="0" x2="648" y2="700" stroke="#0f0c08" stroke-width="0.4" />
  <line x1="666" y1="0" x2="666" y2="700" stroke="#0f0c08" stroke-width="0.4" />
  <line x1="684" y1="0" x2="684" y2="700" stroke="#0f0c08" stroke-width="0.4" />
  <line x1="702" y1="0" x2="702" y2="700" stroke="#0f0c08" stroke-width="0.4" />
  <line x1="720" y1="0" x2="720" y2="700" stroke="#0f0c08" stroke-width="0.4" />
  <line x1="738" y1="0" x2="738" y2="700" stroke="#0f0c08" stroke-width="0.4" />
  <line x1="756" y1="0" x2="756" y2="700" stroke="#0f0c08" stroke-width="0.4" />
  <line x1="774" y1="0" x2="774" y2="700" stroke="#0f0c08" stroke-width="0.4" />
  <line x1="792" y1="0" x2="792" y2="700" stroke="#0f0c08" stroke-width="0.4" />
  <line x1="810" y1="0" x2="810" y2="700" stroke="#0f0c08" stroke-width="0.4" />
  <line x1="828" y1="0" x2="828" y2="700" stroke="#0f0c08" stroke-width="0.4" />
  <line x1="846" y1="0" x2="846" y2="700" stroke="#0f0c08" stroke-width="0.4" />
  <line x1="864" y1="0" x2="864" y2="700" stroke="#0f0c08" stroke-width="0.4" />
  <line x1="882" y1="0" x2="882" y2="700" stroke="#0f0c08" stroke-width="0.4" />
  <line x1="900" y1="0" x2="900" y2="700" stroke="#0f0c08" stroke-width="0.4" />
  <line x1="918" y1="0" x2="918" y2="700" stroke="#0f0c08" stroke-width="0.4" />
  <line x1="936" y1="0" x2="936" y2="700" stroke="#0f0c08" stroke-width="0.4" />
  <line x1="954" y1="0" x2="954" y2="700" stroke="#0f0c08" stroke-width="0.4" />
  <line x1="972" y1="0" x2="972" y2="700" stroke="#0f0c08" stroke-width="0.4" />
  <line x1="990" y1="0" x2="990" y2="700" stroke="#0f0c08" stroke-width="0.4" />
  <line x1="1008" y1="0" x2="1008" y2="700" stroke="#0f0c08" stroke-width="0.4" />
  <line x1="1026" y1="0" x2="1026" y2="700" stroke="#0f0c08" stroke-width="0.4" />
  <line x1="1044" y1="0" x2="1044" y2="700" stroke="#0f0c08" stroke-width="0.4" />
  <line x1="1062" y1="0" x2="1062" y2="700" stroke="#0f0c08" stroke-width="0.4" />
  <line x1="1080" y1="0" x2="1080" y2="700" stroke="#0f0c08" stroke-width="0.4" />
  <line x1="1098" y1="0" x2="1098" y2="700" stroke="#0f0c08" stroke-width="0.4" />
  <line x1="1116" y1="0" x2="1116" y2="700" stroke="#0f0c08" stroke-width="0.4" />
  <line x1="1134" y1="0" x2="1134" y2="700" stroke="#0f0c08" stroke-width="0.4" />
  <line x1="1152" y1="0" x2="1152" y2="700" stroke="#0f0c08" stroke-width="0.4" />
  <line x1="1170" y1="0" x2="1170" y2="700" stroke="#0f0c08" stroke-width="0.4" />
  <line x1="1188" y1="0" x2="1188" y2="700" stroke="#0f0c08" stroke-width="0.4" />
  <line x1="1206" y1="0" x2="1206" y2="700" stroke="#0f0c08" stroke-width="0.4" />
  <line x1="1224" y1="0" x2="1224" y2="700" stroke="#0f0c08" stroke-width="0.4" />
  <line x1="1242" y1="0" x2="1242" y2="700" stroke="#0f0c08" stroke-width="0.4" />
  <line x1="1260" y1="0" x2="1260" y2="700" stroke="#0f0c08" stroke-width="0.4" />
  <line x1="1278" y1="0" x2="1278" y2="700" stroke="#0f0c08" stroke-width="0.4" />
  <line x1="1296" y1="0" x2="1296" y2="700" stroke="#0f0c08" stroke-width="0.4" />
  <line x1="1314" y1="0" x2="1314" y2="700" stroke="#0f0c08" stroke-width="0.4" />
  <line x1="1332" y1="0" x2="1332" y2="700" stroke="#0f0c08" stroke-width="0.4" />
  <line x1="1350" y1="0" x2="1350" y2="700" stroke="#0f0c08" stroke-width="0.4" />
  <line x1="1368" y1="0" x2="1368" y2="700" stroke="#0f0c08" stroke-width="0.4" />
  <line x1="1386" y1="0" x2="1386" y2="700" stroke="#0f0c08" stroke-width="0.4" />
  <line x1="0" y1="0" x2="1400" y2="0" stroke="#0f0c08" stroke-width="0.4" />
  <line x1="0" y1="18" x2="1400" y2="18" stroke="#0f0c08" stroke-width="0.4" />
  <line x1="0" y1="36" x2="1400" y2="36" stroke="#0f0c08" stroke-width="0.4" />
  <line x1="0" y1="54" x2="1400" y2="54" stroke="#0f0c08" stroke-width="0.4" />
  <line x1="0" y1="72" x2="1400" y2="72" stroke="#0f0c08" stroke-width="0.4" />
  <line x1="0" y1="90" x2="1400" y2="90" stroke="#0f0c08" stroke-width="0.4" />
  <line x1="0" y1="108" x2="1400" y2="108" stroke="#0f0c08" stroke-width="0.4" />
  <line x1="0" y1="126" x2="1400" y2="126" stroke="#0f0c08" stroke-width="0.4" />
  <line x1="0" y1="144" x2="1400" y2="144" stroke="#0f0c08" stroke-width="0.4" />
  <line x1="0" y1="162" x2="1400" y2="162" stroke="#0f0c08" stroke-width="0.4" />
  <line x1="0" y1="180" x2="1400" y2="180" stroke="#0f0c08" stroke-width="0.4" />
  <line x1="0" y1="198" x2="1400" y2="198" stroke="#0f0c08" stroke-width="0.4" />
  <line x1="0" y1="216" x2="1400" y2="216" stroke="#0f0c08" stroke-width="0.4" />
  <line x1="0" y1="234" x2="1400" y2="234" stroke="#0f0c08" stroke-width="0.4" />
  <line x1="0" y1="252" x2="1400" y2="252" stroke="#0f0c08" stroke-width="0.4" />
  <line x1="0" y1="270" x2="1400" y2="270" stroke="#0f0c08" stroke-width="0.4" />
  <line x1="0" y1="288" x2="1400" y2="288" stroke="#0f0c08" stroke-width="0.4" />
  <line x1="0" y1="306" x2="1400" y2="306" stroke="#0f0c08" stroke-width="0.4" />
  <line x1="0" y1="324" x2="1400" y2="324" stroke="#0f0c08" stroke-width="0.4" />
  <line x1="0" y1="342" x2="1400" y2="342" stroke="#0f0c08" stroke-width="0.4" />
  <line x1="0" y1="360" x2="1400" y2="360" stroke="#0f0c08" stroke-width="0.4" />
  <line x1="0" y1="378" x2="1400" y2="378" stroke="#0f0c08" stroke-width="0.4" />
  <line x1="0" y1="396" x2="1400" y2="396" stroke="#0f0c08" stroke-width="0.4" />
  <line x1="0" y1="414" x2="1400" y2="414" stroke="#0f0c08" stroke-width="0.4" />
  <line x1="0" y1="432" x2="1400" y2="432" stroke="#0f0c08" stroke-width="0.4" />
  <line x1="0" y1="450" x2="1400" y2="450" stroke="#0f0c08" stroke-width="0.4" />
  <line x1="0" y1="468" x2="1400" y2="468" stroke="#0f0c08" stroke-width="0.4" />
  <line x1="0" y1="486" x2="1400" y2="486" stroke="#0f0c08" stroke-width="0.4" />
  <line x1="0" y1="504" x2="1400" y2="504" stroke="#0f0c08" stroke-width="0.4" />
  <line x1="0" y1="522" x2="1400" y2="522" stroke="#0f0c08" stroke-width="0.4" />
  <line x1="0" y1="540" x2="1400" y2="540" stroke="#0f0c08" stroke-width="0.4" />
  <line x1="0" y1="558" x2="1400" y2="558" stroke="#0f0c08" stroke-width="0.4" />
  <line x1="0" y1="576" x2="1400" y2="576" stroke="#0f0c08" stroke-width="0.4" />
  <line x1="0" y1="594" x2="1400" y2="594" stroke="#0f0c08" stroke-width="0.4" />
  <line x1="0" y1="612" x2="1400" y2="612" stroke="#0f0c08" stroke-width="0.4" />
  <line x1="0" y1="630" x2="1400" y2="630" stroke="#0f0c08" stroke-width="0.4" />
  <line x1="0" y1="648" x2="1400" y2="648" stroke="#0f0c08" stroke-width="0.4" />
  <line x1="0" y1="666" x2="1400" y2="666" stroke="#0f0c08" stroke-width="0.4" />
  <line x1="0" y1="684" x2="1400" y2="684" stroke="#0f0c08" stroke-width="0.4" />
  <rect x="18" y="36" width="90" height="90" fill="#28221a" stroke="#5a5040" stroke-width="2" />
  <text x="63" y="75.0" style="font-size:9px;font-family:serif;fill:#b8a888;text-anchor:middle;font-weight:bold">ПРИХОВАНИЙ</text>
  <text x="63" y="87.0" style="font-size:9px;font-family:serif;fill:#b8a888;text-anchor:middle;font-weight:bold">ВХІД</text>
  <text x="63" y="120" style="font-size:7px;font-family:serif;fill:#706050;text-anchor:middle;font-style:italic">4×4м</text>
  <circle cx="30" cy="48" r="9" fill="#786030" stroke="#c8a840" stroke-width="1" />
  <text x="30" y="52" style="font-size:8px;font-family:serif;fill:#c8a840;text-anchor:middle;font-weight:bold">1A</text>
  <rect x="18" y="36" width="18" height="2" fill="#786030" />
  <rect x="54" y="36" width="18" height="2" fill="#786030" />
  <rect x="90" y="36" width="18" height="2" fill="#786030" />
  <text x="18" y="30" style="font-size:7px;font-family:serif;fill:#786030;text-anchor:start;font-style:italic;">← книжкова шафа</text>
  <rect x="108" y="72" width="36" height="36" fill="#28221a" stroke="#5a5040" stroke-width="1" />
  <rect x="144" y="36" width="144" height="126" fill="#28221a" stroke="#5a5040" stroke-width="2" />
  <text x="216" y="105.0" style="font-size:9px;font-family:serif;fill:#b8a888;text-anchor:middle;font-weight:bold">КІМНАТА ВАРТИ</text>
  <text x="216" y="156" style="font-size:7px;font-family:serif;fill:#706050;text-anchor:middle;font-style:italic">6×8м</text>
  <circle cx="156" cy="48" r="9" fill="#786030" stroke="#c8a840" stroke-width="1" />
  <text x="156" y="52" style="font-size:8px;font-family:serif;fill:#c8a840;text-anchor:middle;font-weight:bold">1B</text>
  <text x="162" y="135" style="font-size:7px;font-family:serif;fill:#706050;text-anchor:start;">⛓ манакли</text>
  <rect x="288" y="72" width="54" height="36" fill="#28221a" stroke="#5a5040" stroke-width="1" />
  <rect x="342" y="18" width="36" height="234" fill="#28221a" stroke="#5a5040" stroke-width="1" />
  <text x="349" y="90" style="font-size:9px;font-family:serif;fill:#b8a888;text-anchor:start;font-weight:bold;">T</text>
  <rect x="342" y="0" width="36" height="18" fill="#120e0a" stroke="#201810" stroke-width="2" />
  <line x1="342" y1="0" x2="378" y2="18" stroke="#5a5040" stroke-width="2" />
  <line x1="378" y1="0" x2="342" y2="18" stroke="#5a5040" stroke-width="2" />
  <text x="345" y="12" style="font-size:7px;font-family:serif;fill:#706050;text-anchor:start;">ТУПИК</text>
  <polygon points="360,182 367,189 360,196 353,189" fill="#cc2828" opacity="0.9" />
  <line x1="355" y1="184" x2="365" y2="194" stroke="white" stroke-width="1.2" />
  <line x1="365" y1="184" x2="355" y2="194" stroke="white" stroke-width="1.2" />
  <text x="360" y="206" style="font-size:6px;font-family:serif;fill:#cc2828;text-anchor:middle">T1: яма</text>
  <text x="309" y="198" style="font-size:7px;font-family:serif;fill:#cc2828;text-anchor:start;font-style:italic;">ЛІВА!</text>
  <rect x="378" y="72" width="90" height="36" fill="#28221a" stroke="#5a5040" stroke-width="1" />
  <polygon points="423,83 430,90 423,97 416,90" fill="#8b5000" opacity="0.9" />
  <line x1="418" y1="85" x2="428" y2="95" stroke="white" stroke-width="1.2" />
  <line x1="428" y1="85" x2="418" y2="95" stroke="white" stroke-width="1.2" />
  <text x="423" y="107" style="font-size:6px;font-family:serif;fill:#8b5000;text-anchor:middle">T2: сигн.</text>
  <rect x="468" y="36" width="108" height="108" fill="#151008" stroke="#5a5040" stroke-width="2" />
  <text x="522" y="84.0" style="font-size:9px;font-family:serif;fill:#b8a888;text-anchor:middle;font-weight:bold">ПІДСОБНЕ</text>
  <text x="522" y="96.0" style="font-size:9px;font-family:serif;fill:#b8a888;text-anchor:middle;font-weight:bold">СКЛЕПІННЯ</text>
  <text x="486" y="126" style="font-size:7px;font-family:serif;fill:#cc2828;text-anchor:start;font-style:italic;">порожньо? ні.</text>
  <rect x="342" y="252" width="36" height="54" fill="#28221a" stroke="#5a5040" stroke-width="1" />
  <text x="333" y="315" style="font-size:9px;font-family:serif;fill:#c8a840;text-anchor:start;font-weight:bold;">▼ Р.2</text>
  <text x="306" y="14" style="font-size:11px;font-family:serif;fill:#b8a888;text-anchor:middle;font-weight:bold;">РІВЕНЬ 1: ВХІД</text>
  <rect x="594" y="0" width="2" height="5" fill="#5a5040" opacity="0.4" />
  <rect x="594" y="7" width="2" height="5" fill="#5a5040" opacity="0.4" />
  <rect x="594" y="14" width="2" height="5" fill="#5a5040" opacity="0.4" />
  <rect x="594" y="21" width="2" height="5" fill="#5a5040" opacity="0.4" />
  <rect x="594" y="28" width="2" height="5" fill="#5a5040" opacity="0.4" />
  <rect x="594" y="35" width="2" height="5" fill="#5a5040" opacity="0.4" />
  <rect x="594" y="42" width="2" height="5" fill="#5a5040" opacity="0.4" />
  <rect x="594" y="49" width="2" height="5" fill="#5a5040" opacity="0.4" />
  <rect x="594" y="56" width="2" height="5" fill="#5a5040" opacity="0.4" />
  <rect x="594" y="63" width="2" height="5" fill="#5a5040" opacity="0.4" />
  <rect x="594" y="70" width="2" height="5" fill="#5a5040" opacity="0.4" />
  <rect x="594" y="77" width="2" height="5" fill="#5a5040" opacity="0.4" />
  <rect x="594" y="84" width="2" height="5" fill="#5a5040" opacity="0.4" />
  <rect x="594" y="91" width="2" height="5" fill="#5a5040" opacity="0.4" />
  <rect x="594" y="98" width="2" height="5" fill="#5a5040" opacity="0.4" />
  <rect x="594" y="105" width="2" height="5" fill="#5a5040" opacity="0.4" />
  <rect x="594" y="112" width="2" height="5" fill="#5a5040" opacity="0.4" />
  <rect x="594" y="119" width="2" height="5" fill="#5a5040" opacity="0.4" />
  <rect x="594" y="126" width="2" height="5" fill="#5a5040" opacity="0.4" />
  <rect x="594" y="133" width="2" height="5" fill="#5a5040" opacity="0.4" />
  <rect x="594" y="140" width="2" height="5" fill="#5a5040" opacity="0.4" />
  <rect x="594" y="147" width="2" height="5" fill="#5a5040" opacity="0.4" />
  <rect x="594" y="154" width="2" height="5" fill="#5a5040" opacity="0.4" />
  <rect x="594" y="161" width="2" height="5" fill="#5a5040" opacity="0.4" />
  <rect x="594" y="168" width="2" height="5" fill="#5a5040" opacity="0.4" />
  <rect x="594" y="175" width="2" height="5" fill="#5a5040" opacity="0.4" />
  <rect x="594" y="182" width="2" height="5" fill="#5a5040" opacity="0.4" />
  <rect x="594" y="189" width="2" height="5" fill="#5a5040" opacity="0.4" />
  <rect x="594" y="196" width="2" height="5" fill="#5a5040" opacity="0.4" />
  <rect x="594" y="203" width="2" height="5" fill="#5a5040" opacity="0.4" />
  <rect x="594" y="210" width="2" height="5" fill="#5a5040" opacity="0.4" />
  <rect x="594" y="217" width="2" height="5" fill="#5a5040" opacity="0.4" />
  <rect x="594" y="224" width="2" height="5" fill="#5a5040" opacity="0.4" />
  <rect x="594" y="231" width="2" height="5" fill="#5a5040" opacity="0.4" />
  <rect x="594" y="238" width="2" height="5" fill="#5a5040" opacity="0.4" />
  <rect x="594" y="245" width="2" height="5" fill="#5a5040" opacity="0.4" />
  <rect x="594" y="252" width="2" height="5" fill="#5a5040" opacity="0.4" />
  <rect x="594" y="259" width="2" height="5" fill="#5a5040" opacity="0.4" />
  <rect x="594" y="266" width="2" height="5" fill="#5a5040" opacity="0.4" />
  <rect x="594" y="273" width="2" height="5" fill="#5a5040" opacity="0.4" />
  <rect x="594" y="280" width="2" height="5" fill="#5a5040" opacity="0.4" />
  <rect x="594" y="287" width="2" height="5" fill="#5a5040" opacity="0.4" />
  <rect x="594" y="294" width="2" height="5" fill="#5a5040" opacity="0.4" />
  <rect x="594" y="301" width="2" height="5" fill="#5a5040" opacity="0.4" />
  <rect x="594" y="308" width="2" height="5" fill="#5a5040" opacity="0.4" />
  <rect x="594" y="315" width="2" height="5" fill="#5a5040" opacity="0.4" />
  <rect x="594" y="322" width="2" height="5" fill="#5a5040" opacity="0.4" />
  <rect x="594" y="329" width="2" height="5" fill="#5a5040" opacity="0.4" />
  <rect x="594" y="336" width="2" height="5" fill="#5a5040" opacity="0.4" />
  <rect x="594" y="343" width="2" height="5" fill="#5a5040" opacity="0.4" />
  <rect x="594" y="350" width="2" height="5" fill="#5a5040" opacity="0.4" />
  <rect x="594" y="357" width="2" height="5" fill="#5a5040" opacity="0.4" />
  <rect x="594" y="364" width="2" height="5" fill="#5a5040" opacity="0.4" />
  <rect x="594" y="371" width="2" height="5" fill="#5a5040" opacity="0.4" />
  <rect x="594" y="378" width="2" height="5" fill="#5a5040" opacity="0.4" />
  <rect x="594" y="385" width="2" height="5" fill="#5a5040" opacity="0.4" />
  <rect x="594" y="392" width="2" height="5" fill="#5a5040" opacity="0.4" />
  <rect x="594" y="399" width="2" height="5" fill="#5a5040" opacity="0.4" />
  <rect x="594" y="406" width="2" height="5" fill="#5a5040" opacity="0.4" />
  <rect x="594" y="413" width="2" height="5" fill="#5a5040" opacity="0.4" />
  <rect x="594" y="420" width="2" height="5" fill="#5a5040" opacity="0.4" />
  <rect x="594" y="427" width="2" height="5" fill="#5a5040" opacity="0.4" />
  <rect x="594" y="434" width="2" height="5" fill="#5a5040" opacity="0.4" />
  <rect x="594" y="441" width="2" height="5" fill="#5a5040" opacity="0.4" />
  <rect x="594" y="448" width="2" height="5" fill="#5a5040" opacity="0.4" />
  <rect x="594" y="455" width="2" height="5" fill="#5a5040" opacity="0.4" />
  <rect x="594" y="462" width="2" height="5" fill="#5a5040" opacity="0.4" />
  <rect x="594" y="469" width="2" height="5" fill="#5a5040" opacity="0.4" />
  <rect x="594" y="476" width="2" height="5" fill="#5a5040" opacity="0.4" />
  <rect x="594" y="483" width="2" height="5" fill="#5a5040" opacity="0.4" />
  <rect x="594" y="490" width="2" height="5" fill="#5a5040" opacity="0.4" />
  <rect x="594" y="497" width="2" height="5" fill="#5a5040" opacity="0.4" />
  <rect x="594" y="504" width="2" height="5" fill="#5a5040" opacity="0.4" />
  <rect x="594" y="511" width="2" height="5" fill="#5a5040" opacity="0.4" />
  <rect x="594" y="518" width="2" height="5" fill="#5a5040" opacity="0.4" />
  <rect x="594" y="525" width="2" height="5" fill="#5a5040" opacity="0.4" />
  <rect x="594" y="532" width="2" height="5" fill="#5a5040" opacity="0.4" />
  <rect x="594" y="539" width="2" height="5" fill="#5a5040" opacity="0.4" />
  <rect x="594" y="546" width="2" height="5" fill="#5a5040" opacity="0.4" />
  <rect x="594" y="553" width="2" height="5" fill="#5a5040" opacity="0.4" />
  <rect x="594" y="560" width="2" height="5" fill="#5a5040" opacity="0.4" />
  <rect x="594" y="567" width="2" height="5" fill="#5a5040" opacity="0.4" />
  <rect x="594" y="574" width="2" height="5" fill="#5a5040" opacity="0.4" />
  <rect x="594" y="581" width="2" height="5" fill="#5a5040" opacity="0.4" />
  <rect x="594" y="588" width="2" height="5" fill="#5a5040" opacity="0.4" />
  <rect x="594" y="595" width="2" height="5" fill="#5a5040" opacity="0.4" />
  <rect x="594" y="602" width="2" height="5" fill="#5a5040" opacity="0.4" />
  <rect x="594" y="609" width="2" height="5" fill="#5a5040" opacity="0.4" />
  <rect x="594" y="616" width="2" height="5" fill="#5a5040" opacity="0.4" />
  <rect x="594" y="623" width="2" height="5" fill="#5a5040" opacity="0.4" />
  <rect x="594" y="630" width="2" height="5" fill="#5a5040" opacity="0.4" />
  <rect x="594" y="637" width="2" height="5" fill="#5a5040" opacity="0.4" />
  <rect x="594" y="644" width="2" height="5" fill="#5a5040" opacity="0.4" />
  <rect x="594" y="651" width="2" height="5" fill="#5a5040" opacity="0.4" />
  <rect x="594" y="658" width="2" height="5" fill="#5a5040" opacity="0.4" />
  <rect x="594" y="665" width="2" height="5" fill="#5a5040" opacity="0.4" />
  <rect x="594" y="672" width="2" height="5" fill="#5a5040" opacity="0.4" />
  <rect x="594" y="679" width="2" height="5" fill="#5a5040" opacity="0.4" />
  <rect x="594" y="686" width="2" height="5" fill="#5a5040" opacity="0.4" />
  <rect x="594" y="693" width="2" height="5" fill="#5a5040" opacity="0.4" />
  <text x="864" y="14" style="font-size:11px;font-family:serif;fill:#b8a888;text-anchor:middle;font-weight:bold;">РІВЕНЬ 2: АРХІВ</text>
  <rect x="630" y="18" width="90" height="72" fill="#28221a" stroke="#5a5040" stroke-width="2" />
  <text x="675" y="48.0" style="font-size:9px;font-family:serif;fill:#b8a888;text-anchor:middle;font-weight:bold">ВЕСТИ-</text>
  <text x="675" y="60.0" style="font-size:9px;font-family:serif;fill:#b8a888;text-anchor:middle;font-weight:bold">БЮЛЬ</text>
  <rect x="648" y="90" width="36" height="54" fill="#28221a" stroke="#5a5040" stroke-width="1" />
  <polygon points="666,119 673,126 666,133 659,126" fill="#8b8000" opacity="0.9" />
  <line x1="661" y1="121" x2="671" y2="131" stroke="white" stroke-width="1.2" />
  <line x1="671" y1="121" x2="661" y2="131" stroke="white" stroke-width="1.2" />
  <text x="666" y="143" style="font-size:6px;font-family:serif;fill:#8b8000;text-anchor:middle">T3: газ</text>
  <text x="630" y="144" style="font-size:7px;font-family:serif;fill:#cc2828;text-anchor:start;font-style:italic;">← ЛІВА!</text>
  <rect x="720" y="36" width="54" height="36" fill="#28221a" stroke="#5a5040" stroke-width="1" />
  <rect x="630" y="144" width="468" height="198" fill="#28221a" stroke="#c8a840" stroke-width="2" />
  <text x="864" y="249.0" style="font-size:9px;font-family:serif;fill:#b8a888;text-anchor:middle;font-weight:bold">ВЕЛИКИЙ СХОВОК  8×20м</text>
  <text x="864" y="336" style="font-size:7px;font-family:serif;fill:#706050;text-anchor:middle;font-style:italic">стелажі з ящиками</text>
  <text x="864" y="180" style="font-size:8px;font-family:serif;fill:#786030;text-anchor:middle">2A</text>
  <rect x="648" y="147" width="15" height="7" fill="#302818" stroke="#3a3020" stroke-width="0.5" />
  <rect x="648" y="328" width="15" height="7" fill="#302818" stroke="#3a3020" stroke-width="0.5" />
  <rect x="666" y="147" width="15" height="7" fill="#302818" stroke="#3a3020" stroke-width="0.5" />
  <rect x="666" y="328" width="15" height="7" fill="#302818" stroke="#3a3020" stroke-width="0.5" />
  <rect x="684" y="147" width="15" height="7" fill="#302818" stroke="#3a3020" stroke-width="0.5" />
  <rect x="684" y="328" width="15" height="7" fill="#302818" stroke="#3a3020" stroke-width="0.5" />
  <rect x="702" y="147" width="15" height="7" fill="#302818" stroke="#3a3020" stroke-width="0.5" />
  <rect x="702" y="328" width="15" height="7" fill="#302818" stroke="#3a3020" stroke-width="0.5" />
  <rect x="720" y="147" width="15" height="7" fill="#302818" stroke="#3a3020" stroke-width="0.5" />
  <rect x="720" y="328" width="15" height="7" fill="#302818" stroke="#3a3020" stroke-width="0.5" />
  <rect x="738" y="147" width="15" height="7" fill="#302818" stroke="#3a3020" stroke-width="0.5" />
  <rect x="738" y="328" width="15" height="7" fill="#302818" stroke="#3a3020" stroke-width="0.5" />
  <rect x="756" y="147" width="15" height="7" fill="#302818" stroke="#3a3020" stroke-width="0.5" />
  <rect x="756" y="328" width="15" height="7" fill="#302818" stroke="#3a3020" stroke-width="0.5" />
  <rect x="774" y="147" width="15" height="7" fill="#302818" stroke="#3a3020" stroke-width="0.5" />
  <rect x="774" y="328" width="15" height="7" fill="#302818" stroke="#3a3020" stroke-width="0.5" />
  <rect x="792" y="147" width="15" height="7" fill="#302818" stroke="#3a3020" stroke-width="0.5" />
  <rect x="792" y="328" width="15" height="7" fill="#302818" stroke="#3a3020" stroke-width="0.5" />
  <rect x="810" y="147" width="15" height="7" fill="#302818" stroke="#3a3020" stroke-width="0.5" />
  <rect x="810" y="328" width="15" height="7" fill="#302818" stroke="#3a3020" stroke-width="0.5" />
  <rect x="828" y="147" width="15" height="7" fill="#302818" stroke="#3a3020" stroke-width="0.5" />
  <rect x="828" y="328" width="15" height="7" fill="#302818" stroke="#3a3020" stroke-width="0.5" />
  <rect x="846" y="147" width="15" height="7" fill="#302818" stroke="#3a3020" stroke-width="0.5" />
  <rect x="846" y="328" width="15" height="7" fill="#302818" stroke="#3a3020" stroke-width="0.5" />
  <rect x="864" y="147" width="15" height="7" fill="#302818" stroke="#3a3020" stroke-width="0.5" />
  <rect x="864" y="328" width="15" height="7" fill="#302818" stroke="#3a3020" stroke-width="0.5" />
  <rect x="882" y="147" width="15" height="7" fill="#302818" stroke="#3a3020" stroke-width="0.5" />
  <rect x="882" y="328" width="15" height="7" fill="#302818" stroke="#3a3020" stroke-width="0.5" />
  <rect x="900" y="147" width="15" height="7" fill="#302818" stroke="#3a3020" stroke-width="0.5" />
  <rect x="900" y="328" width="15" height="7" fill="#302818" stroke="#3a3020" stroke-width="0.5" />
  <rect x="918" y="147" width="15" height="7" fill="#302818" stroke="#3a3020" stroke-width="0.5" />
  <rect x="918" y="328" width="15" height="7" fill="#302818" stroke="#3a3020" stroke-width="0.5" />
  <rect x="936" y="147" width="15" height="7" fill="#302818" stroke="#3a3020" stroke-width="0.5" />
  <rect x="936" y="328" width="15" height="7" fill="#302818" stroke="#3a3020" stroke-width="0.5" />
  <rect x="954" y="147" width="15" height="7" fill="#302818" stroke="#3a3020" stroke-width="0.5" />
  <rect x="954" y="328" width="15" height="7" fill="#302818" stroke="#3a3020" stroke-width="0.5" />
  <rect x="972" y="147" width="15" height="7" fill="#302818" stroke="#3a3020" stroke-width="0.5" />
  <rect x="972" y="328" width="15" height="7" fill="#302818" stroke="#3a3020" stroke-width="0.5" />
  <rect x="990" y="147" width="15" height="7" fill="#302818" stroke="#3a3020" stroke-width="0.5" />
  <rect x="990" y="328" width="15" height="7" fill="#302818" stroke="#3a3020" stroke-width="0.5" />
  <rect x="1008" y="147" width="15" height="7" fill="#302818" stroke="#3a3020" stroke-width="0.5" />
  <rect x="1008" y="328" width="15" height="7" fill="#302818" stroke="#3a3020" stroke-width="0.5" />
  <rect x="1026" y="147" width="15" height="7" fill="#302818" stroke="#3a3020" stroke-width="0.5" />
  <rect x="1026" y="328" width="15" height="7" fill="#302818" stroke="#3a3020" stroke-width="0.5" />
  <rect x="1044" y="147" width="15" height="7" fill="#302818" stroke="#3a3020" stroke-width="0.5" />
  <rect x="1044" y="328" width="15" height="7" fill="#302818" stroke="#3a3020" stroke-width="0.5" />
  <rect x="1062" y="147" width="15" height="7" fill="#302818" stroke="#3a3020" stroke-width="0.5" />
  <rect x="1062" y="328" width="15" height="7" fill="#302818" stroke="#3a3020" stroke-width="0.5" />
  <circle cx="864" cy="234" r="55" fill="rgba(180,150,60,0.08)" />
  <circle cx="864" cy="234" r="40" fill="rgba(180,150,60,0.13)" />
  <circle cx="864" cy="234" r="28" fill="rgba(180,150,60,0.2)" />
  <circle cx="864" cy="234" r="18" fill="rgba(180,150,60,0.28)" />
  <circle cx="864" cy="234" r="42" fill="none" stroke="#786030" stroke-width="0.7" stroke-dasharray="3,2" opacity="0.5" />
  <circle cx="864" cy="234" r="30" fill="none" stroke="#786030" stroke-width="0.7" stroke-dasharray="3,2" opacity="0.5" />
  <circle cx="864" cy="234" r="20" fill="none" stroke="#786030" stroke-width="0.7" stroke-dasharray="3,2" opacity="0.5" />
  <rect x="856" y="218" width="16" height="30" fill="#b8a870" stroke="#c8a840" stroke-width="1.5" rx="2" />
  <text x="864" y="258" style="font-size:7px;font-family:serif;fill:#c8a840;text-anchor:middle;font-weight:bold">☆ АРТЕФАКТ</text>
  <ellipse cx="874" cy="242" rx="4" ry="2" fill="#6a1010" opacity="0.55" />
  <ellipse cx="850" cy="246" rx="4" ry="2" fill="#6a1010" opacity="0.55" />
  <ellipse cx="870" cy="224" rx="4" ry="2" fill="#6a1010" opacity="0.55" />
  <rect x="1096" y="232" width="4" height="5" fill="#786030" opacity="0.8" />
  <rect x="1096" y="239" width="4" height="5" fill="#786030" opacity="0.8" />
  <rect x="1096" y="246" width="4" height="5" fill="#786030" opacity="0.8" />
  <rect x="1096" y="253" width="4" height="5" fill="#786030" opacity="0.8" />
  <text x="1071" y="225" style="font-size:7px;font-family:serif;fill:#786030;text-anchor:start;font-style:italic;">&lt; таємний хід</text>
  <rect x="1098" y="198" width="18" height="90" fill="#28221a" stroke="#5a5040" stroke-width="1" />
  <rect x="1116" y="162" width="144" height="144" fill="#28221a" stroke="#5a5040" stroke-width="2" />
  <text x="1188" y="228.0" style="font-size:9px;font-family:serif;fill:#b8a888;text-anchor:middle;font-weight:bold">КАБІНЕТ</text>
  <text x="1188" y="240.0" style="font-size:9px;font-family:serif;fill:#b8a888;text-anchor:middle;font-weight:bold">СЕБАСТЬЯНА</text>
  <text x="1188" y="300" style="font-size:7px;font-family:serif;fill:#706050;text-anchor:middle;font-style:italic">4×5м</text>
  <circle cx="1128" cy="174" r="9" fill="#786030" stroke="#c8a840" stroke-width="1" />
  <text x="1128" y="178" style="font-size:8px;font-family:serif;fill:#c8a840;text-anchor:middle;font-weight:bold">2B</text>
  <polygon points="1134,182 1141,189 1134,196 1127,189" fill="#8b5000" opacity="0.9" />
  <line x1="1129" y1="184" x2="1139" y2="194" stroke="white" stroke-width="1.2" />
  <line x1="1139" y1="184" x2="1129" y2="194" stroke="white" stroke-width="1.2" />
  <text x="1134" y="206" style="font-size:6px;font-family:serif;fill:#8b5000;text-anchor:middle">T4: дріт</text>
  <text x="1134" y="270" style="font-size:8px;font-family:serif;fill:#b8a888;text-anchor:start;">♦ костюм</text>
  <text x="1134" y="288" style="font-size:7px;font-family:serif;fill:#706050;text-anchor:start;">🪞 до стіни</text>
  <rect x="720" y="342" width="36" height="72" fill="#28221a" stroke="#5a5040" stroke-width="1" />
  <polygon points="738,380 745,387 738,394 731,387" fill="#cc2828" opacity="0.9" />
  <line x1="733" y1="382" x2="743" y2="392" stroke="white" stroke-width="1.2" />
  <line x1="743" y1="382" x2="733" y2="392" stroke="white" stroke-width="1.2" />
  <text x="738" y="404" style="font-size:6px;font-family:serif;fill:#cc2828;text-anchor:middle">T5: шипи</text>
  <rect x="792" y="342" width="36" height="108" fill="#28221a" stroke="#5a5040" stroke-width="1" />
  <polygon points="810,407 817,414 810,421 803,414" fill="#8b8000" opacity="0.9" />
  <line x1="805" y1="409" x2="815" y2="419" stroke="white" stroke-width="1.2" />
  <line x1="815" y1="409" x2="805" y2="419" stroke="white" stroke-width="1.2" />
  <text x="810" y="431" style="font-size:6px;font-family:serif;fill:#8b8000;text-anchor:middle">T6: газ</text>
  <text x="756" y="423" style="font-size:7px;font-family:serif;fill:#cc2828;text-anchor:start;font-style:italic;">ЛІВА!</text>
  <rect x="666" y="414" width="180" height="108" fill="#28221a" stroke="#5a5040" stroke-width="2" />
  <text x="756" y="462.0" style="font-size:9px;font-family:serif;fill:#b8a888;text-anchor:middle;font-weight:bold">ПОРОЖНЯ</text>
  <text x="756" y="474.0" style="font-size:9px;font-family:serif;fill:#b8a888;text-anchor:middle;font-weight:bold">КІМНАТА</text>
  <text x="756" y="516" style="font-size:7px;font-family:serif;fill:#706050;text-anchor:middle;font-style:italic">3×3м</text>
  <circle cx="678" cy="426" r="9" fill="#786030" stroke="#c8a840" stroke-width="1" />
  <text x="678" y="430" style="font-size:8px;font-family:serif;fill:#c8a840;text-anchor:middle;font-weight:bold">2C</text>
  <rect x="730" y="468" width="16" height="12" fill="#2a1808" stroke="#4a3020" stroke-width="1.5" />
  <text x="756" y="486" style="font-size:13px;font-family:serif;fill:#cc2828;text-anchor:middle;font-weight:bold">???</text>
  <text x="792" y="522" style="font-size:9px;font-family:serif;fill:#c8a840;text-anchor:start;font-weight:bold;">▼ Р.3</text>
  <rect x="1188" y="0" width="2" height="5" fill="#5a5040" opacity="0.4" />
  <rect x="1188" y="7" width="2" height="5" fill="#5a5040" opacity="0.4" />
  <rect x="1188" y="14" width="2" height="5" fill="#5a5040" opacity="0.4" />
  <rect x="1188" y="21" width="2" height="5" fill="#5a5040" opacity="0.4" />
  <rect x="1188" y="28" width="2" height="5" fill="#5a5040" opacity="0.4" />
  <rect x="1188" y="35" width="2" height="5" fill="#5a5040" opacity="0.4" />
  <rect x="1188" y="42" width="2" height="5" fill="#5a5040" opacity="0.4" />
  <rect x="1188" y="49" width="2" height="5" fill="#5a5040" opacity="0.4" />
  <rect x="1188" y="56" width="2" height="5" fill="#5a5040" opacity="0.4" />
  <rect x="1188" y="63" width="2" height="5" fill="#5a5040" opacity="0.4" />
  <rect x="1188" y="70" width="2" height="5" fill="#5a5040" opacity="0.4" />
  <rect x="1188" y="77" width="2" height="5" fill="#5a5040" opacity="0.4" />
  <rect x="1188" y="84" width="2" height="5" fill="#5a5040" opacity="0.4" />
  <rect x="1188" y="91" width="2" height="5" fill="#5a5040" opacity="0.4" />
  <rect x="1188" y="98" width="2" height="5" fill="#5a5040" opacity="0.4" />
  <rect x="1188" y="105" width="2" height="5" fill="#5a5040" opacity="0.4" />
  <rect x="1188" y="112" width="2" height="5" fill="#5a5040" opacity="0.4" />
  <rect x="1188" y="119" width="2" height="5" fill="#5a5040" opacity="0.4" />
  <rect x="1188" y="126" width="2" height="5" fill="#5a5040" opacity="0.4" />
  <rect x="1188" y="133" width="2" height="5" fill="#5a5040" opacity="0.4" />
  <rect x="1188" y="140" width="2" height="5" fill="#5a5040" opacity="0.4" />
  <rect x="1188" y="147" width="2" height="5" fill="#5a5040" opacity="0.4" />
  <rect x="1188" y="154" width="2" height="5" fill="#5a5040" opacity="0.4" />
  <rect x="1188" y="161" width="2" height="5" fill="#5a5040" opacity="0.4" />
  <rect x="1188" y="168" width="2" height="5" fill="#5a5040" opacity="0.4" />
  <rect x="1188" y="175" width="2" height="5" fill="#5a5040" opacity="0.4" />
  <rect x="1188" y="182" width="2" height="5" fill="#5a5040" opacity="0.4" />
  <rect x="1188" y="189" width="2" height="5" fill="#5a5040" opacity="0.4" />
  <rect x="1188" y="196" width="2" height="5" fill="#5a5040" opacity="0.4" />
  <rect x="1188" y="203" width="2" height="5" fill="#5a5040" opacity="0.4" />
  <rect x="1188" y="210" width="2" height="5" fill="#5a5040" opacity="0.4" />
  <rect x="1188" y="217" width="2" height="5" fill="#5a5040" opacity="0.4" />
  <rect x="1188" y="224" width="2" height="5" fill="#5a5040" opacity="0.4" />
  <rect x="1188" y="231" width="2" height="5" fill="#5a5040" opacity="0.4" />
  <rect x="1188" y="238" width="2" height="5" fill="#5a5040" opacity="0.4" />
  <rect x="1188" y="245" width="2" height="5" fill="#5a5040" opacity="0.4" />
  <rect x="1188" y="252" width="2" height="5" fill="#5a5040" opacity="0.4" />
  <rect x="1188" y="259" width="2" height="5" fill="#5a5040" opacity="0.4" />
  <rect x="1188" y="266" width="2" height="5" fill="#5a5040" opacity="0.4" />
  <rect x="1188" y="273" width="2" height="5" fill="#5a5040" opacity="0.4" />
  <rect x="1188" y="280" width="2" height="5" fill="#5a5040" opacity="0.4" />
  <rect x="1188" y="287" width="2" height="5" fill="#5a5040" opacity="0.4" />
  <rect x="1188" y="294" width="2" height="5" fill="#5a5040" opacity="0.4" />
  <rect x="1188" y="301" width="2" height="5" fill="#5a5040" opacity="0.4" />
  <rect x="1188" y="308" width="2" height="5" fill="#5a5040" opacity="0.4" />
  <rect x="1188" y="315" width="2" height="5" fill="#5a5040" opacity="0.4" />
  <rect x="1188" y="322" width="2" height="5" fill="#5a5040" opacity="0.4" />
  <rect x="1188" y="329" width="2" height="5" fill="#5a5040" opacity="0.4" />
  <rect x="1188" y="336" width="2" height="5" fill="#5a5040" opacity="0.4" />
  <rect x="1188" y="343" width="2" height="5" fill="#5a5040" opacity="0.4" />
  <rect x="1188" y="350" width="2" height="5" fill="#5a5040" opacity="0.4" />
  <rect x="1188" y="357" width="2" height="5" fill="#5a5040" opacity="0.4" />
  <rect x="1188" y="364" width="2" height="5" fill="#5a5040" opacity="0.4" />
  <rect x="1188" y="371" width="2" height="5" fill="#5a5040" opacity="0.4" />
  <rect x="1188" y="378" width="2" height="5" fill="#5a5040" opacity="0.4" />
  <rect x="1188" y="385" width="2" height="5" fill="#5a5040" opacity="0.4" />
  <rect x="1188" y="392" width="2" height="5" fill="#5a5040" opacity="0.4" />
  <rect x="1188" y="399" width="2" height="5" fill="#5a5040" opacity="0.4" />
  <rect x="1188" y="406" width="2" height="5" fill="#5a5040" opacity="0.4" />
  <rect x="1188" y="413" width="2" height="5" fill="#5a5040" opacity="0.4" />
  <rect x="1188" y="420" width="2" height="5" fill="#5a5040" opacity="0.4" />
  <rect x="1188" y="427" width="2" height="5" fill="#5a5040" opacity="0.4" />
  <rect x="1188" y="434" width="2" height="5" fill="#5a5040" opacity="0.4" />
  <rect x="1188" y="441" width="2" height="5" fill="#5a5040" opacity="0.4" />
  <rect x="1188" y="448" width="2" height="5" fill="#5a5040" opacity="0.4" />
  <rect x="1188" y="455" width="2" height="5" fill="#5a5040" opacity="0.4" />
  <rect x="1188" y="462" width="2" height="5" fill="#5a5040" opacity="0.4" />
  <rect x="1188" y="469" width="2" height="5" fill="#5a5040" opacity="0.4" />
  <rect x="1188" y="476" width="2" height="5" fill="#5a5040" opacity="0.4" />
  <rect x="1188" y="483" width="2" height="5" fill="#5a5040" opacity="0.4" />
  <rect x="1188" y="490" width="2" height="5" fill="#5a5040" opacity="0.4" />
  <rect x="1188" y="497" width="2" height="5" fill="#5a5040" opacity="0.4" />
  <rect x="1188" y="504" width="2" height="5" fill="#5a5040" opacity="0.4" />
  <rect x="1188" y="511" width="2" height="5" fill="#5a5040" opacity="0.4" />
  <rect x="1188" y="518" width="2" height="5" fill="#5a5040" opacity="0.4" />
  <rect x="1188" y="525" width="2" height="5" fill="#5a5040" opacity="0.4" />
  <rect x="1188" y="532" width="2" height="5" fill="#5a5040" opacity="0.4" />
  <rect x="1188" y="539" width="2" height="5" fill="#5a5040" opacity="0.4" />
  <rect x="1188" y="546" width="2" height="5" fill="#5a5040" opacity="0.4" />
  <rect x="1188" y="553" width="2" height="5" fill="#5a5040" opacity="0.4" />
  <rect x="1188" y="560" width="2" height="5" fill="#5a5040" opacity="0.4" />
  <rect x="1188" y="567" width="2" height="5" fill="#5a5040" opacity="0.4" />
  <rect x="1188" y="574" width="2" height="5" fill="#5a5040" opacity="0.4" />
  <rect x="1188" y="581" width="2" height="5" fill="#5a5040" opacity="0.4" />
  <rect x="1188" y="588" width="2" height="5" fill="#5a5040" opacity="0.4" />
  <rect x="1188" y="595" width="2" height="5" fill="#5a5040" opacity="0.4" />
  <rect x="1188" y="602" width="2" height="5" fill="#5a5040" opacity="0.4" />
  <rect x="1188" y="609" width="2" height="5" fill="#5a5040" opacity="0.4" />
  <rect x="1188" y="616" width="2" height="5" fill="#5a5040" opacity="0.4" />
  <rect x="1188" y="623" width="2" height="5" fill="#5a5040" opacity="0.4" />
  <rect x="1188" y="630" width="2" height="5" fill="#5a5040" opacity="0.4" />
  <rect x="1188" y="637" width="2" height="5" fill="#5a5040" opacity="0.4" />
  <rect x="1188" y="644" width="2" height="5" fill="#5a5040" opacity="0.4" />
  <rect x="1188" y="651" width="2" height="5" fill="#5a5040" opacity="0.4" />
  <rect x="1188" y="658" width="2" height="5" fill="#5a5040" opacity="0.4" />
  <rect x="1188" y="665" width="2" height="5" fill="#5a5040" opacity="0.4" />
  <rect x="1188" y="672" width="2" height="5" fill="#5a5040" opacity="0.4" />
  <rect x="1188" y="679" width="2" height="5" fill="#5a5040" opacity="0.4" />
  <rect x="1188" y="686" width="2" height="5" fill="#5a5040" opacity="0.4" />
  <rect x="1188" y="693" width="2" height="5" fill="#5a5040" opacity="0.4" />
  <text x="1404" y="14" style="font-size:11px;font-family:serif;fill:#b8a888;text-anchor:middle;font-weight:bold;">РІВЕНЬ 3: ГЛИБИНА</text>
  <rect x="1260" y="18" width="36" height="90" fill="#28221a" stroke="#5a5040" stroke-width="1" />
  <rect x="1224" y="108" width="180" height="126" fill="#28221a" stroke="#5a5040" stroke-width="2" />
  <text x="1314" y="165.0" style="font-size:9px;font-family:serif;fill:#b8a888;text-anchor:middle;font-weight:bold">ПЕРЕДКІМНАТА</text>
  <text x="1314" y="177.0" style="font-size:9px;font-family:serif;fill:#b8a888;text-anchor:middle;font-weight:bold">РЕГУЛЯТОРА</text>
  <text x="1314" y="228" style="font-size:7px;font-family:serif;fill:#706050;text-anchor:middle;font-style:italic">5×5м</text>
  <circle cx="1236" cy="120" r="9" fill="#786030" stroke="#c8a840" stroke-width="1" />
  <text x="1236" y="124" style="font-size:8px;font-family:serif;fill:#c8a840;text-anchor:middle;font-weight:bold">3A</text>
  <rect x="1402" y="144" width="4" height="36" fill="#cc2828" stroke="#cc2828" stroke-width="1" />
  <circle cx="1404" cy="162" r="14" fill="none" stroke="#cc2828" stroke-width="1" />
  <circle cx="1404" cy="162" r="9" fill="none" stroke="#cc2828" stroke-width="1" />
  <circle cx="1404" cy="162" r="5" fill="none" stroke="#cc2828" stroke-width="1" />
  <line x1="1410" y1="162" x2="1417" y2="162" stroke="#cc2828" stroke-width="1.2" />
  <line x1="1408" y1="166" x2="1413" y2="171" stroke="#cc2828" stroke-width="1.2" />
  <line x1="1404" y1="168" x2="1404" y2="175" stroke="#cc2828" stroke-width="1.2" />
  <line x1="1399" y1="166" x2="1394" y2="171" stroke="#cc2828" stroke-width="1.2" />
  <line x1="1398" y1="162" x2="1391" y2="162" stroke="#cc2828" stroke-width="1.2" />
  <line x1="1399" y1="157" x2="1394" y2="152" stroke="#cc2828" stroke-width="1.2" />
  <line x1="1404" y1="156" x2="1404" y2="149" stroke="#cc2828" stroke-width="1.2" />
  <line x1="1408" y1="157" x2="1413" y2="152" stroke="#cc2828" stroke-width="1.2" />
  <text x="1409" y="135" style="font-size:7px;font-family:serif;fill:#cc2828;text-anchor:start;font-weight:bold;">КРИВАВНА</text>
  <text x="1409" y="149" style="font-size:7px;font-family:serif;fill:#cc2828;text-anchor:start;">ПЕЧАТКА</text>
  <text x="1409" y="165" style="font-size:7px;font-family:serif;fill:#cc2828;text-anchor:start;font-style:italic;">тільки кров</text>
  <text x="1409" y="178" style="font-size:7px;font-family:serif;fill:#cc2828;text-anchor:start;font-style:italic;">Ключника</text>
  <rect x="1098" y="144" width="126" height="90" fill="#0a1828" stroke="#2a5a9a" stroke-width="2" />
  <text x="1170" y="180" style="font-size:8px;font-family:serif;fill:#2a5a9a;text-anchor:middle;font-weight:bold">ЗАТОПЛЕНИЙ</text>
  <text x="1170" y="198" style="font-size:8px;font-family:serif;fill:#2a5a9a;text-anchor:middle;font-weight:bold">ПРОХІД</text>
  <text x="1170" y="216" style="font-size:7px;font-family:serif;fill:#3a6a98;text-anchor:middle;font-style:italic">вода 1.5м</text>
  <text x="1098" y="252" style="font-size:7px;font-family:serif;fill:#2a5a9a;text-anchor:start;font-style:italic;">→ виходить під Хейзмуром</text>
  <rect x="1404" y="162" width="36" height="54" fill="#28221a" stroke="#5a5040" stroke-width="1" />
  <rect x="1440" y="90" width="324" height="396" fill="#0a0604" stroke="#3a1808" stroke-width="3" />
  <text x="1602" y="486" style="font-size:9px;font-family:serif;fill:#4a3828;text-anchor:middle;font-weight:bold">ПІДВАЛ РЕГУЛЯТОРА</text>
  <circle cx="1440" cy="108" r="9" fill="#786030" stroke="#c8a840" stroke-width="1" />
  <text x="1440" y="113.39999999999999" style="font-size:8px;font-family:serif;fill:#c8a840;text-anchor:middle;font-weight:bold">3B</text>
  <circle cx="1458" cy="108" r="6" fill="#2a1808" stroke="#4a3020" stroke-width="1.5" />
  <circle cx="1458" cy="108" r="2" fill="#3a2810" opacity="0.6" />
  <circle cx="1478" cy="131" r="2" fill="#3a2810" opacity="0.6" />
  <circle cx="1499" cy="154" r="2" fill="#3a2810" opacity="0.6" />
  <circle cx="1519" cy="177" r="2" fill="#3a2810" opacity="0.6" />
  <circle cx="1540" cy="200" r="2" fill="#3a2810" opacity="0.6" />
  <circle cx="1560" cy="223" r="2" fill="#3a2810" opacity="0.6" />
  <circle cx="1581" cy="246" r="2" fill="#3a2810" opacity="0.6" />
  <circle cx="1746" cy="108" r="6" fill="#2a1808" stroke="#4a3020" stroke-width="1.5" />
  <circle cx="1746" cy="108" r="2" fill="#3a2810" opacity="0.6" />
  <circle cx="1725" cy="131" r="2" fill="#3a2810" opacity="0.6" />
  <circle cx="1704" cy="154" r="2" fill="#3a2810" opacity="0.6" />
  <circle cx="1684" cy="177" r="2" fill="#3a2810" opacity="0.6" />
  <circle cx="1663" cy="200" r="2" fill="#3a2810" opacity="0.6" />
  <circle cx="1643" cy="223" r="2" fill="#3a2810" opacity="0.6" />
  <circle cx="1622" cy="246" r="2" fill="#3a2810" opacity="0.6" />
  <circle cx="1458" cy="468" r="6" fill="#2a1808" stroke="#4a3020" stroke-width="1.5" />
  <circle cx="1458" cy="468" r="2" fill="#3a2810" opacity="0.6" />
  <circle cx="1478" cy="439" r="2" fill="#3a2810" opacity="0.6" />
  <circle cx="1499" cy="411" r="2" fill="#3a2810" opacity="0.6" />
  <circle cx="1519" cy="383" r="2" fill="#3a2810" opacity="0.6" />
  <circle cx="1540" cy="354" r="2" fill="#3a2810" opacity="0.6" />
  <circle cx="1560" cy="326" r="2" fill="#3a2810" opacity="0.6" />
  <circle cx="1581" cy="298" r="2" fill="#3a2810" opacity="0.6" />
  <circle cx="1746" cy="468" r="6" fill="#2a1808" stroke="#4a3020" stroke-width="1.5" />
  <circle cx="1746" cy="468" r="2" fill="#3a2810" opacity="0.6" />
  <circle cx="1725" cy="439" r="2" fill="#3a2810" opacity="0.6" />
  <circle cx="1704" cy="411" r="2" fill="#3a2810" opacity="0.6" />
  <circle cx="1684" cy="383" r="2" fill="#3a2810" opacity="0.6" />
  <circle cx="1663" cy="354" r="2" fill="#3a2810" opacity="0.6" />
  <circle cx="1643" cy="326" r="2" fill="#3a2810" opacity="0.6" />
  <circle cx="1622" cy="298" r="2" fill="#3a2810" opacity="0.6" />
  <circle cx="1602" cy="270" r="55" fill="#040302" />
  <circle cx="1602" cy="270" r="40" fill="#040302" />
  <circle cx="1602" cy="270" r="28" fill="#040302" />
  <circle cx="1602" cy="270" r="18" fill="#040302" />
  <text x="1593" y="261" style="font-size:8px;font-family:serif;fill:#706050;text-anchor:middle;font-style:italic;">не намагайся</text>
  <text x="1593" y="275" style="font-size:8px;font-family:serif;fill:#706050;text-anchor:middle;font-style:italic;">дізнатись що там</text>
  <rect x="1764" y="252" width="72" height="36" fill="#28221a" stroke="#5a5040" stroke-width="1" />
  <line x1="1836" y1="270" x2="1872" y2="270" stroke="#706050" stroke-width="1.5" stroke-dasharray="5,5" />
  <text x="1764" y="243" style="font-size:7px;font-family:serif;fill:#706050;text-anchor:start;font-style:italic;">→ невідомо куди. стіни не природні.</text>
  <text x="18" y="630" style="font-size:8px;font-family:serif;fill:#cc2828;text-anchor:start;font-style:italic;">"Третій коридор праворуч — не ходи. Я ходив. Не ходи."</text>
  <text x="18" y="657" style="font-size:8px;font-family:serif;fill:#706050;text-anchor:start;font-style:italic;">"Після печатки компас не працює. Глибина невідома."</text>
  <rect x="4" y="625" width="550" height="70" fill="#0d0b08" stroke="#5a5040" stroke-width="1" rx="3" />
  <text x="280" y="640" style="font-size:9px;font-family:serif;fill:#b8a888;text-anchor:middle;font-weight:bold">ЛЕГЕНДА</text>
  <text x="15" y="660" style="font-size:7px;font-family:serif;fill:#cc2828">⬥ Пастка-яма/шипи</text>
  <text x="15" y="676" style="font-size:7px;font-family:serif;fill:#8b8000">⬥ Отруйний газ</text>
  <text x="15" y="692" style="font-size:7px;font-family:serif;fill:#786030">--- Таємний хід</text>
  <text x="15" y="708" style="font-size:7px;font-family:serif;fill:#cc2828">❋ Кривавна печатка</text>
  <text x="280" y="660" style="font-size:7px;font-family:serif;fill:#706050">▓ Стелажі</text>
  <text x="280" y="676" style="font-size:7px;font-family:serif;fill:#2a5a9a">██ Затоплений прохід</text>
  <text x="280" y="692" style="font-size:7px;font-family:serif;fill:#706050">● Тунель невідомо куди</text>
  <rect x="440" y="3" width="520" height="30" fill="#0d0b08" stroke="#5a5040" stroke-width="1" rx="3" />
  <text x="700" y="15" style="font-size:13px;font-family:serif;fill:#b8a888;text-anchor:middle;font-weight:bold">ЧОРНИЙ АРХІВ — Схема Підземного Комплексу</text>
  <text x="700" y="27" style="font-size:8px;font-family:serif;fill:#706050;text-anchor:middle;font-style:italic">Мал. невідомий. Знайдено у кишені мертвого дослідника.</text>
</svg>